<svg width="1561" height="689" viewBox="0 0 1561 689" fill="none" xmlns="http://www.w3.org/2000/svg">
<path d="M1093.27 462.216C1104.79 457.391 1111.88 450.944 1112.46 443.422C1113.97 424.22 1072.7 405.308 1020.3 401.199C1004.19 399.935 988.908 400.227 975.416 401.782C980.084 395.612 982.951 388.69 983.535 381.249C983.61 380.285 983.647 379.327 983.645 378.375C1009.93 374.655 1029.21 362.332 1030.47 346.279C1032.13 325.061 1001.72 305.366 962.536 302.294C945.594 300.965 929.793 302.967 917.173 307.373C899.154 258.988 847.637 221.658 784.306 216.692C706.793 210.613 639.2 255.184 626.904 318.007C625.987 317.909 625.064 317.809 624.131 317.736C597.973 315.685 575.757 326.924 574.51 342.825C574.152 347.385 575.557 351.822 578.349 355.893C550.69 355.815 529.315 363.117 528.476 373.824C528.404 374.735 528.501 375.649 528.724 376.546C523.385 378.21 518.547 380.246 514.322 382.599C503.45 372.311 485.828 364.851 465.48 363.255C436.243 360.962 410.664 371.489 401.99 387.849C373.521 386.416 351.56 388.814 351.173 393.749C350.789 398.638 371.818 404.381 399.872 407.425C400.306 408.95 400.863 410.466 401.557 411.939C327.859 407.614 272.838 408.623 272.342 414.94C271.761 422.355 346.669 434.28 439.654 441.572C445.087 441.998 450.457 442.402 455.76 442.782C456.904 442.907 458.056 443.016 459.218 443.107C460.974 443.244 462.713 443.327 464.439 443.373C493.332 445.297 519.88 446.454 542.134 446.835C550.72 449.295 560.136 451.021 570.079 451.801C587.547 453.17 603.886 451.426 617.209 447.363C621.059 448.14 625.05 448.705 629.157 449.027C639.349 449.826 649.083 449.054 657.797 447.026C663.616 450.14 671.108 452.317 679.397 452.967C687.937 453.636 695.898 452.582 702.225 450.268C720.868 459.361 742.011 465.284 764.672 467.061C789.583 469.014 813.465 465.734 834.821 458.305C842.793 469.524 861.615 478.371 884.146 480.138C914.946 482.553 940.986 470.832 942.31 453.959C942.355 453.379 942.364 452.796 942.35 452.221C959.14 461.384 985.206 468.438 1014.84 470.762C1023.25 471.421 1031.44 471.659 1039.26 471.51C1042.51 477.268 1060.38 482.844 1082.27 484.561C1106.83 486.487 1127.15 482.828 1127.65 476.385C1128.09 470.773 1113.33 464.902 1093.27 462.216Z" fill="#E9F6FC"/>
<path d="M494.48 370.108C480.601 370.178 468.171 371.681 458.378 374.262C451.096 371.132 442.385 368.42 432.684 366.312C442.436 363.504 453.658 362.337 465.479 363.264C476.08 364.095 485.935 366.511 494.48 370.108Z" fill="#E9F6FC"/>
<path d="M1127.65 476.385C1127.65 476.439 1127.64 476.501 1127.63 476.545C1126.81 482.891 1106.62 486.47 1082.27 484.561C1060.38 482.844 1042.51 477.268 1039.25 471.509C1031.44 471.66 1023.25 471.421 1014.85 470.762C985.203 468.437 959.142 461.384 942.348 452.211C942.362 452.796 942.352 453.379 942.306 453.968C940.982 470.841 914.94 482.553 884.148 480.138C861.62 478.371 842.797 469.524 834.825 458.305C813.461 465.734 789.583 469.014 764.672 467.061C742.014 465.284 720.862 459.361 702.224 450.277C695.9 452.582 687.931 453.636 679.395 452.966C671.106 452.316 663.618 450.14 657.803 447.027C649.077 449.063 639.354 449.826 629.157 449.027C625.055 448.705 621.056 448.131 617.216 447.363C603.882 451.417 587.544 453.17 570.079 451.801C560.132 451.02 550.723 449.295 542.136 446.835C519.881 446.445 493.334 445.288 464.434 443.372C462.708 443.327 460.973 443.244 459.218 443.107C458.056 443.016 456.908 442.908 455.76 442.782C450.458 442.402 445.085 441.998 439.654 441.572C346.674 434.281 271.761 422.355 272.343 414.931C272.507 412.834 278.673 411.334 289.542 410.408C311.412 408.541 352.316 409.047 401.561 411.939C400.865 410.466 400.304 408.95 399.875 407.426C371.817 404.381 350.794 398.639 351.178 393.74C351.564 388.815 373.524 386.416 401.994 387.85C407.162 378.101 418.32 370.429 432.684 366.312C442.385 368.42 451.096 371.132 458.378 374.262C468.172 371.681 480.601 370.178 494.481 370.108C502.347 373.392 509.11 377.675 514.319 382.599C518.548 380.237 523.383 378.21 528.727 376.547C528.499 375.649 528.404 374.744 528.476 373.824C529.315 363.117 550.693 355.816 578.352 355.884C575.558 351.813 574.151 347.385 574.508 342.834C575.115 335.098 580.682 328.46 589.256 323.934C599.406 325.332 608.906 327.719 617.393 330.854C625.398 322.639 637.314 316.121 651.664 312.022C645.296 304.385 640.605 296.063 637.934 287.36C662.754 241.347 720.126 211.659 784.306 216.692C808.518 218.591 830.998 225.219 850.552 235.399C863.765 249.767 870.9 266.792 869.511 284.504C869.18 288.724 868.37 292.817 867.139 296.797C876.112 293.577 885.838 292.167 895.892 292.956C901.62 293.405 907.137 294.538 912.368 296.295C914.172 299.92 915.778 303.619 917.177 307.382C920.771 306.12 924.624 305.058 928.685 304.236C950.124 318.369 963.465 344.033 961.258 372.176C961.16 373.425 961.027 374.671 960.87 375.907C974.484 372.531 990.901 370.829 1008.7 371.273C1001.59 374.603 993.074 377.041 983.641 378.375C983.65 379.327 983.61 380.285 983.534 381.258C982.951 388.69 980.083 395.603 975.411 401.781C988.906 400.227 1004.19 399.935 1020.3 401.199C1060.66 404.364 1094.42 416.312 1107.1 430.414C1108.37 431.807 1109.43 433.236 1110.26 434.684C1111.92 437.552 1112.7 440.477 1112.46 443.422C1111.87 450.953 1104.79 457.4 1093.27 462.207C1113.33 464.911 1128.09 470.782 1127.65 476.385Z" fill="#B5D7F7"/>
<path d="M1145.22 460.265C1144.67 467.279 1137.89 473.068 1127.63 476.545C1119.01 479.488 1107.92 480.808 1095.97 479.871C1069.78 477.817 1049.36 465.721 1050.37 452.827C1050.44 451.988 1050.6 451.157 1050.83 450.359C1039.63 451.356 1027.45 451.452 1014.77 450.457C979.683 447.706 949.688 437.417 934.198 424.405C920.557 435.572 903.006 441.693 884.343 440.229C845.05 437.148 815.789 401.671 818.977 361.018C819.482 354.584 820.765 348.41 822.726 342.575C811.055 348.097 797.728 352.062 783.344 354.157C784.807 358.473 785.426 362.903 785.073 367.409C782.787 396.551 740.941 417.043 691.606 413.174C686.638 412.784 681.796 412.144 677.078 411.316C670.063 414.51 662.214 416.022 654.057 415.382C643.196 414.531 633.471 409.997 625.925 403.085C624.379 403.628 622.8 404.133 621.175 404.625C622.676 407.544 623.405 410.716 623.149 413.982C622.193 426.18 607.971 435.021 591.383 433.72C578.46 432.706 567.904 425.837 564.332 417.072C563.345 417.345 562.335 417.598 561.289 417.848C561.896 419.386 562.153 420.969 562.028 422.566C561.186 433.3 543.348 440.655 522.171 438.994C501.612 437.382 485.49 427.867 485.337 417.485C477.84 416.044 470.905 414.253 464.768 412.191C462.528 413.075 460.09 413.889 457.478 414.636C458.56 415.753 459.092 416.881 459.005 417.988C458.314 426.804 418.638 430.875 370.405 427.092C333.103 424.167 301.579 417.403 289.542 410.408C311.412 408.541 352.316 409.047 401.561 411.939C400.865 410.466 400.304 408.949 399.875 407.425C371.817 404.381 350.794 398.639 351.178 393.74C351.564 388.814 373.524 386.416 401.994 387.849C407.161 378.101 418.32 370.429 432.684 366.312C442.385 368.42 451.096 371.132 458.378 374.262C468.172 371.681 480.601 370.178 494.481 370.108C502.347 373.391 509.11 377.674 514.319 382.599C518.548 380.237 523.383 378.21 528.727 376.546C528.499 375.649 528.403 374.743 528.476 373.824C529.315 363.117 550.693 355.816 578.352 355.884C575.558 351.813 574.151 347.385 574.508 342.834C575.115 335.098 580.682 328.46 589.256 323.934C599.406 325.331 608.906 327.719 617.393 330.854C625.398 322.638 637.314 316.121 651.664 312.022C645.296 304.385 640.605 296.063 637.934 287.36C662.754 241.347 720.126 211.659 784.306 216.692C808.518 218.591 830.998 225.219 850.552 235.398C863.765 249.767 870.9 266.792 869.511 284.504C869.18 288.724 868.37 292.817 867.139 296.797C876.112 293.577 885.838 292.167 895.892 292.956C901.62 293.405 907.137 294.538 912.368 296.295C918.194 298.224 923.662 300.897 928.685 304.236C950.124 318.369 963.465 344.033 961.258 372.176C961.16 373.425 961.027 374.671 960.87 375.907C974.484 372.531 990.901 370.828 1008.7 371.273C1012.71 371.381 1016.79 371.584 1020.93 371.908C1073.31 376.016 1114.4 396.925 1112.7 418.626C1112.37 422.873 1110.41 426.813 1107.1 430.414C1106.07 431.527 1104.91 432.612 1103.64 433.644C1105.9 433.92 1108.11 434.264 1110.26 434.684C1131.12 438.699 1146.09 449.201 1145.22 460.265Z" fill="#E9F6FC"/>
<path d="M273.148 416.413C292.779 411.228 314.145 410.973 333.53 412.161C335.431 412.274 337.333 412.387 339.234 412.501C340.195 412.522 342.068 412.579 342.802 412.583C346.539 412.58 350.275 412.55 354.012 412.555C363.611 412.581 373.381 412.521 382.904 413.869C385.356 414.214 387.784 414.665 390.187 415.195C390.216 415.152 390.242 415.109 390.273 415.067C391.185 413.801 392.157 412.62 393.153 411.468C362.177 409.784 334.889 409.081 314.125 409.364C313.963 409.37 313.804 409.375 313.644 409.372C311.729 409.401 309.871 409.435 308.071 409.482C307.756 409.493 307.441 409.496 307.129 409.507C306.668 409.516 306.211 409.534 305.758 409.543C305.378 409.558 305.005 409.565 304.631 409.581C304.227 409.594 303.821 409.607 303.423 409.621C302.749 409.64 302.084 409.668 301.429 409.698C301.121 409.709 300.821 409.722 300.517 409.734C300.007 409.757 299.501 409.78 299.004 409.795C298.718 409.808 298.435 409.822 298.152 409.845C297.652 409.868 297.16 409.892 296.673 409.917C296.443 409.926 296.209 409.944 295.982 409.953C295.285 409.997 294.602 410.033 293.933 410.079C293.821 410.088 293.714 410.089 293.604 410.098C293.021 410.142 292.45 410.178 291.889 410.224C291.714 410.228 291.541 410.242 291.367 410.255C290.837 410.303 290.319 410.344 289.81 410.384C289.723 410.387 289.629 410.397 289.542 410.408C289.504 410.405 289.469 410.412 289.43 410.417C288.809 410.467 288.199 410.527 287.609 410.58C287.52 410.591 287.434 410.602 287.346 410.604C286.868 410.657 286.402 410.701 285.945 410.755C285.748 410.775 285.554 410.796 285.361 410.817C285.019 410.853 284.685 410.898 284.356 410.935C284.148 410.964 283.939 410.983 283.735 411.012C283.379 411.056 283.034 411.11 282.693 411.155C282.358 411.201 282.034 411.247 281.713 411.294C281.504 411.331 281.294 411.36 281.091 411.397C280.835 411.431 280.587 411.475 280.341 411.518C280.182 411.551 280.027 411.574 279.873 411.598C279.619 411.65 279.367 411.693 279.126 411.737C279.045 411.758 278.97 411.77 278.891 411.791C278.369 411.893 277.878 411.998 277.416 412.115C277.348 412.127 277.276 412.149 277.21 412.161C276.981 412.215 276.763 412.279 276.551 412.334C276.469 412.355 276.388 412.384 276.309 412.405C276.099 412.46 275.894 412.525 275.701 412.582C275.667 412.597 275.637 412.604 275.605 412.619C275.222 412.742 274.875 412.867 274.558 413.004C274.501 413.026 274.439 413.048 274.385 413.071C274.248 413.132 274.122 413.194 274 413.247C273.926 413.287 273.855 413.326 273.787 413.356C273.678 413.42 273.572 413.474 273.475 413.538C273.398 413.586 273.332 413.635 273.262 413.683C273.145 413.764 273.038 413.845 272.944 413.928C272.87 413.994 272.798 414.06 272.739 414.118C272.697 414.169 272.662 414.211 272.627 414.262C272.575 414.33 272.531 414.398 272.494 414.467C272.472 414.51 272.448 414.553 272.431 414.597C272.388 414.701 272.357 414.806 272.346 414.922L272.343 414.931C272.343 414.931 272.343 414.931 272.342 414.94C272.305 415.413 272.585 415.902 273.148 416.413Z" fill="white"/>
<path d="M1074.67 446.419C1093.63 440.787 1115.69 439.285 1135.11 444.291C1128.91 440.034 1120.27 436.609 1110.26 434.684C1110.25 434.656 1110.23 434.628 1110.22 434.609C1110.15 434.496 1110.08 434.382 1110.01 434.278C1109.73 433.817 1109.43 433.353 1109.1 432.896C1109.06 432.821 1109.01 432.754 1108.95 432.678C1108.6 432.193 1108.21 431.705 1107.8 431.223C1107.66 431.042 1107.5 430.867 1107.34 430.684C1107.26 430.597 1107.18 430.501 1107.1 430.414C1110.41 426.813 1112.37 422.873 1112.7 418.626C1114.4 396.925 1073.31 376.016 1020.93 371.908C1016.79 371.584 1012.71 371.381 1008.7 371.273C1021.43 365.331 1029.66 356.576 1030.47 346.279C1032.13 325.061 1001.72 305.366 962.536 302.294C950.413 301.343 938.883 302.109 928.677 304.226C923.655 300.897 918.19 298.224 912.368 296.295C912.358 296.294 912.347 296.293 912.338 296.283C899.87 271.182 878.154 249.773 850.571 235.418C850.564 235.417 850.558 235.408 850.552 235.398C850.418 235.325 850.28 235.26 850.145 235.196C849.472 234.847 848.791 234.506 848.11 234.165C847.321 233.771 846.527 233.386 845.729 233C845.062 232.679 844.396 232.366 843.723 232.053C842.774 231.61 841.816 231.185 840.855 230.769C840.331 230.53 839.811 230.292 839.282 230.071C837.857 229.456 836.417 228.876 834.968 228.296C834.393 228.071 833.812 227.855 833.234 227.639C832.233 227.255 831.228 226.88 830.216 226.514C829.609 226.296 829.003 226.077 828.393 225.868C827.284 225.485 826.168 225.11 825.047 224.744C824.566 224.589 824.09 224.426 823.607 224.272C822.034 223.78 820.45 223.306 818.853 222.857C818.412 222.733 817.967 222.617 817.524 222.493C816.304 222.155 815.078 221.834 813.844 221.522C813.279 221.379 812.711 221.245 812.142 221.101C810.932 220.818 809.715 220.534 808.493 220.267C808.004 220.166 807.518 220.047 807.029 219.946C805.341 219.598 803.644 219.259 801.935 218.954C801.659 218.905 801.379 218.866 801.102 218.817C799.65 218.559 798.189 218.328 796.721 218.105C796.167 218.026 795.612 217.955 795.056 217.876C793.792 217.696 792.521 217.533 791.244 217.388C790.711 217.32 790.178 217.26 789.642 217.2C787.872 217.007 786.096 216.832 784.306 216.692C782.505 216.551 780.71 216.446 778.92 216.359C778.577 216.341 778.235 216.323 777.892 216.314C776.17 216.233 774.451 216.188 772.74 216.162C772.409 216.163 772.08 216.155 771.75 216.156C770.038 216.138 768.33 216.148 766.632 216.176C766.557 216.18 766.481 216.183 766.408 216.177C764.667 216.22 762.937 216.291 761.213 216.371C760.86 216.397 760.509 216.415 760.159 216.432C758.489 216.526 756.828 216.638 755.172 216.786C754.85 216.806 754.528 216.843 754.205 216.872C752.604 217.016 751.01 217.178 749.425 217.368C749.281 217.384 749.134 217.399 748.989 217.415C747.331 217.617 745.683 217.847 744.042 218.095C743.677 218.156 743.313 218.208 742.949 218.27C741.351 218.521 739.76 218.792 738.179 219.081C737.863 219.146 737.548 219.211 737.232 219.267C735.75 219.554 734.274 219.861 732.809 220.177C732.601 220.223 732.39 220.27 732.181 220.316C730.616 220.669 729.063 221.05 727.519 221.441C727.146 221.537 726.771 221.633 726.399 221.73C724.885 222.123 723.379 222.544 721.887 222.974C721.575 223.066 721.266 223.168 720.955 223.26C719.589 223.665 718.233 224.097 716.887 224.53C716.633 224.618 716.377 224.697 716.124 224.785C714.66 225.271 713.209 225.786 711.769 226.311C711.391 226.451 711.016 226.584 710.64 226.725C709.218 227.26 707.806 227.804 706.408 228.377C706.114 228.497 705.822 228.618 705.528 228.748C704.273 229.26 703.029 229.8 701.795 230.349C701.511 230.471 701.226 230.592 700.943 230.723C699.586 231.334 698.245 231.974 696.914 232.624C696.544 232.802 696.176 232.988 695.809 233.166C694.487 233.825 693.177 234.495 691.884 235.183C691.608 235.332 691.338 235.482 691.064 235.631C689.916 236.259 688.781 236.888 687.657 237.536C687.362 237.711 687.064 237.876 686.771 238.05C685.524 238.778 684.294 239.526 683.076 240.292C682.73 240.507 682.384 240.732 682.039 240.947C680.822 241.723 679.614 242.517 678.426 243.321C678.189 243.482 677.956 243.652 677.721 243.813C676.668 244.539 675.628 245.283 674.601 246.029C674.314 246.24 674.026 246.451 673.742 246.662C672.609 247.498 671.492 248.362 670.391 249.227C670.076 249.481 669.765 249.725 669.454 249.979C668.345 250.871 667.247 251.772 666.172 252.694C665.983 252.858 665.8 253.024 665.612 253.188C664.647 254.028 663.697 254.879 662.761 255.739C662.502 255.979 662.239 256.219 661.982 256.459C660.965 257.403 659.967 258.375 658.985 259.348C658.716 259.623 658.451 259.89 658.185 260.156C657.19 261.165 656.207 262.183 655.25 263.221C655.122 263.364 654.999 263.507 654.871 263.64C653.989 264.613 653.126 265.586 652.278 266.579C652.057 266.831 651.834 267.092 651.616 267.344C650.722 268.405 649.849 269.477 648.993 270.568C648.779 270.839 648.569 271.109 648.357 271.389C647.492 272.506 646.64 273.633 645.818 274.772C645.748 274.874 645.682 274.968 645.614 275.061C644.816 276.184 644.045 277.308 643.29 278.452C643.115 278.717 642.939 278.972 642.767 279.237C642.006 280.407 641.266 281.588 640.549 282.78C640.393 283.046 640.242 283.304 640.088 283.57C639.368 284.788 638.664 286.017 637.993 287.257C637.974 287.291 637.954 287.326 637.934 287.36L637.935 287.36C632.774 296.93 629.021 307.193 626.904 318.007C625.987 317.908 625.064 317.809 624.131 317.736C610.695 316.682 598.307 319.14 589.259 323.934C589.258 323.934 589.257 323.934 589.256 323.934C589.234 323.941 589.213 323.957 589.19 323.974C588.713 324.224 588.245 324.483 587.785 324.752C587.7 324.799 587.617 324.847 587.532 324.903C587.12 325.14 586.713 325.395 586.317 325.643C586.199 325.723 586.085 325.795 585.969 325.876C585.608 326.117 585.253 326.349 584.907 326.6C584.77 326.697 584.636 326.795 584.501 326.892C584.183 327.127 583.868 327.363 583.564 327.599C583.416 327.713 583.272 327.837 583.128 327.951C582.845 328.18 582.565 328.41 582.295 328.649C582.142 328.781 581.996 328.922 581.849 329.054C581.596 329.286 581.346 329.508 581.105 329.75C580.954 329.9 580.809 330.05 580.662 330.2C580.438 330.425 580.214 330.658 580 330.893C579.855 331.052 579.717 331.212 579.577 331.372C579.376 331.607 579.175 331.834 578.985 332.07C578.847 332.248 578.72 332.418 578.587 332.596C578.41 332.824 578.23 333.062 578.063 333.3C577.935 333.478 577.817 333.667 577.696 333.846C577.541 334.085 577.383 334.315 577.239 334.555C577.121 334.752 577.015 334.95 576.905 335.148C576.773 335.38 576.636 335.612 576.514 335.854C576.408 336.061 576.316 336.269 576.218 336.486C576.108 336.72 575.993 336.953 575.893 337.188C575.799 337.414 575.72 337.641 575.634 337.868C575.549 338.094 575.456 338.321 575.38 338.548C575.296 338.802 575.229 339.057 575.155 339.32C575.096 339.531 575.028 339.732 574.976 339.944C574.901 340.252 574.844 340.562 574.785 340.871C574.753 341.04 574.711 341.207 574.684 341.375C574.607 341.854 574.547 342.343 574.508 342.834C574.375 344.538 574.49 346.226 574.831 347.887C574.837 347.914 574.846 347.942 574.852 347.969C575.428 350.708 576.621 353.369 578.348 355.883C575.271 355.876 572.277 355.973 569.375 356.14C555.656 356.932 544.118 359.654 536.827 363.706C531.798 366.508 528.78 369.943 528.476 373.824C528.456 374.074 528.479 374.318 528.483 374.57C528.488 374.831 528.488 375.1 528.519 375.363C528.564 375.762 528.626 376.153 528.723 376.546C527.132 377.041 525.603 377.585 524.106 378.141C520.574 379.462 517.289 380.946 514.322 382.599C512.448 380.827 510.36 379.137 508.106 377.551C507.999 377.48 507.898 377.4 507.791 377.329C507.158 376.884 506.503 376.456 505.842 376.036C505.665 375.914 505.493 375.802 505.313 375.689C504.669 375.279 504.004 374.886 503.334 374.501C503.129 374.377 502.929 374.254 502.721 374.139C502.036 373.744 501.332 373.375 500.623 372.996C500.424 372.89 500.228 372.785 500.028 372.68C499.273 372.297 498.501 371.923 497.722 371.547C497.564 371.481 497.41 371.397 497.251 371.331C496.388 370.931 495.509 370.539 494.617 370.164C494.572 370.142 494.527 370.121 494.481 370.108C494.461 370.098 494.44 370.087 494.419 370.085C493.49 369.689 492.543 369.319 491.584 368.956C491.399 368.888 491.216 368.82 491.03 368.751C490.181 368.433 489.316 368.141 488.445 367.848C488.16 367.754 487.88 367.651 487.593 367.566C486.79 367.305 485.973 367.062 485.152 366.827C484.8 366.718 484.452 366.61 484.096 366.511C483.302 366.296 482.497 366.089 481.689 365.891C481.303 365.798 480.923 365.687 480.533 365.603C479.701 365.403 478.854 365.229 478.006 365.046C477.638 364.972 477.275 364.889 476.905 364.815C475.949 364.633 474.981 364.467 474.011 364.301C473.739 364.262 473.474 364.205 473.202 364.166C470.679 363.771 468.103 363.461 465.48 363.255C464.098 363.147 462.728 363.084 461.363 363.031C461.197 363.018 461.03 363.014 460.863 363.01C459.513 362.967 458.173 362.942 456.844 362.955C456.741 362.956 456.639 362.957 456.535 362.958C455.193 362.969 453.859 363.008 452.54 363.075C452.512 363.082 452.484 363.08 452.457 363.078C451.126 363.153 449.813 363.247 448.51 363.37C448.37 363.386 448.231 363.402 448.092 363.409C445.461 363.669 442.889 364.033 440.39 364.502C440.322 364.514 440.253 364.527 440.185 364.539C438.933 364.773 437.698 365.036 436.483 365.317C436.421 365.331 436.359 365.353 436.297 365.366C433.276 366.08 430.376 366.948 427.623 367.962C427.459 368.021 427.298 368.081 427.137 368.14C426.512 368.378 425.895 368.617 425.285 368.865C425.072 368.956 424.86 369.038 424.649 369.13C424.086 369.364 423.531 369.608 422.982 369.852C422.771 369.952 422.557 370.043 422.348 370.143C421.753 370.42 421.169 370.706 420.594 370.993C420.454 371.063 420.309 371.133 420.171 371.203C419.465 371.569 418.772 371.946 418.095 372.324C417.939 372.419 417.791 372.506 417.637 372.593C417.128 372.894 416.624 373.187 416.133 373.498C415.893 373.65 415.66 373.802 415.425 373.955C415.027 374.211 414.633 374.467 414.248 374.733C414 374.902 413.756 375.072 413.512 375.25C413.145 375.509 412.785 375.777 412.43 376.045C412.199 376.215 411.967 376.395 411.741 376.566C411.362 376.868 410.996 377.172 410.632 377.475C410.45 377.622 410.261 377.778 410.081 377.935C409.554 378.387 409.039 378.858 408.544 379.331C408.448 379.423 408.359 379.523 408.264 379.615C407.862 380.005 407.468 380.405 407.09 380.806C406.928 380.982 406.774 381.159 406.617 381.335C406.315 381.661 406.017 382.006 405.732 382.343C405.573 382.537 405.417 382.731 405.263 382.917C404.989 383.263 404.723 383.61 404.465 383.958C404.327 384.145 404.188 384.332 404.055 384.519C403.78 384.91 403.52 385.303 403.266 385.696C403.167 385.85 403.064 386.003 402.969 386.157C402.625 386.714 402.297 387.272 401.993 387.849C382.42 386.862 365.925 387.687 357.4 389.901C353.523 390.907 351.294 392.205 351.173 393.749C350.833 398.085 367.353 403.097 390.676 406.3C392.834 406.595 395.066 406.869 397.331 407.127C408.186 397.115 422.516 391.964 436.668 388.908C450.099 386.011 464.601 385.801 477.755 389.993C489.218 393.648 499.772 398.256 509.847 404.172C516.493 397.071 526.484 393.788 536.817 394.598C540.509 394.887 543.902 396.105 546.916 397.984C546.967 396.776 547.081 395.591 547.28 394.422C550.296 376.748 565.612 368.037 581.748 369.303C586.442 369.671 590.657 371.536 594.218 374.365C593.664 371 593.623 367.585 594.176 364.343C597.192 346.669 612.508 337.967 628.643 339.233C630.802 339.402 632.857 339.895 634.798 340.64C666.47 304.151 717.309 287.597 765.046 287.991C797.279 288.257 829.231 292.648 859.068 305.788C864.988 308.389 870.701 311.315 876.206 314.539C882.536 309.954 890.688 307.918 899.067 308.575C906.349 309.146 912.482 313.308 916.791 319.095C944.921 317.476 975.701 318.427 989.227 348.764C993.525 358.411 991.201 369.523 985.264 377.82C991.084 378.77 996.877 380.033 1002.62 381.506C1012.8 384.136 1023.81 386.526 1033.39 390.886C1043.86 395.657 1052.17 402.54 1059.72 411.239C1067.97 420.756 1073.01 433.414 1074.67 446.419Z" fill="white"/>
<path d="M707.792 346.265C707.792 346.265 799.698 385.021 857.088 326.955C857.088 326.955 782.279 367.486 707.792 346.265Z" fill="#B5D7F7"/>
<path d="M890.858 420.567C890.858 420.567 944.239 445.339 980.546 419.368C980.546 419.368 942.278 427.131 890.858 420.567Z" fill="#B5D7F7"/>
<path d="M534.25 422.516C534.25 422.516 569.032 433.206 585.212 406.653C585.212 406.653 564.734 419.151 534.25 422.516Z" fill="#B5D7F7"/>
<path d="M439.019 405.665C439.019 405.665 472.984 436.205 504.424 414.915C504.424 414.915 475.105 418.093 439.019 405.665Z" fill="#B5D7F7"/>
<path d="M599.63 401.086C599.63 401.086 629.646 422.114 652.761 401.769C652.761 401.769 629.635 407.345 599.63 401.086Z" fill="#B5D7F7"/>
<path d="M796.969 418.501C796.969 418.501 771.42 455.246 733.083 452.239C733.083 452.239 785.391 474.863 832.564 451.395C832.564 451.395 781.353 460.433 796.969 418.501Z" fill="#E9F6FC"/>
<path d="M1008.67 290.533C966.483 288.987 929.146 312.359 909.516 347.728C892.528 311.018 857.002 284.975 814.811 283.429C754.333 281.213 703.472 330.133 701.185 392.552C698.898 454.971 734.307 513.562 781.05 562.338C827.794 611.114 898.129 658.522 898.129 658.522C898.129 658.522 969.385 617.046 1021.93 571.164C1077.98 522.248 1111.71 470.283 1114.01 407.678C1116.3 345.073 1069.15 292.748 1008.67 290.533Z" fill="#84E5B8"/>
<path d="M1042.08 312.771C999.891 311.225 962.554 334.598 942.925 369.966C925.936 333.256 890.41 307.214 848.22 305.668C787.741 303.452 736.881 352.372 734.594 414.79C732.307 477.209 767.715 535.801 814.458 584.576C861.202 633.352 931.537 680.76 931.537 680.76C931.537 680.76 1002.79 639.284 1055.34 593.402C1111.39 544.487 1145.12 492.521 1147.42 429.916C1149.71 367.312 1102.56 314.987 1042.08 312.771Z" fill="#A3F1C9"/>
<path d="M1358.62 70.503C1328.62 65.6311 1299.85 78.9953 1282.67 102.511C1273.81 74.7669 1250.76 52.9888 1220.75 48.1169C1177.74 41.1331 1137.04 71.5418 1129.83 115.932C1122.62 160.322 1142.69 205.344 1171.73 244.366C1200.77 283.387 1246.78 323.538 1246.78 323.538C1246.78 323.538 1301.4 300.269 1343.03 272.182C1387.45 242.239 1416.19 208.125 1423.42 163.603C1430.65 119.08 1401.63 77.4868 1358.62 70.503Z" fill="#C1BBDD"/>
<path d="M1324.62 81.6349C1294.62 76.7629 1265.85 90.1272 1248.67 113.643C1239.81 85.8988 1216.76 64.1207 1186.75 59.2487C1143.74 52.265 1103.04 82.6736 1095.83 127.064C1088.62 171.454 1108.69 216.476 1137.73 255.498C1166.77 294.519 1212.78 334.67 1212.78 334.67C1212.78 334.67 1267.4 311.401 1309.03 283.314C1353.45 253.371 1382.19 219.257 1389.42 174.735C1396.65 130.212 1367.63 88.6186 1324.62 81.6349Z" fill="#D0C9E8"/>
<path d="M457.453 72.6958C402.73 79.6055 359.522 117.619 341.677 167.363C312.027 123.616 260.727 97.5354 206.003 104.445C127.559 114.35 72.3058 188.156 82.5283 269.117C92.7508 350.078 150.768 418.15 221.327 471.174C291.887 524.198 392.576 570.481 392.576 570.481C392.576 570.481 475.697 501.969 533.766 431.724C595.708 356.829 628.237 282.709 617.984 201.508C607.731 120.306 535.897 62.7911 457.453 72.6958Z" fill="#F4EC67"/>
<path d="M498.368 41.9302C443.644 48.8398 400.437 86.8534 382.592 136.597C352.942 92.8503 301.641 66.7698 246.918 73.6794C168.473 83.5842 113.221 157.39 123.443 238.351C133.666 319.312 191.682 387.384 262.242 440.408C332.802 493.433 433.491 539.715 433.491 539.715C433.491 539.715 516.612 471.203 574.681 400.958C636.623 326.063 669.152 251.944 658.899 170.742C648.646 89.54 576.812 32.0254 498.368 41.9302Z" fill="#FBF293"/>
<path d="M231.899 253.883L226.22 208.905L225.632 208.979L214.432 217.262L213.614 209.088L225.458 200.169L233.521 199.151L240.298 252.822L231.899 253.883ZM267.578 250.402C265.03 250.724 262.654 250.825 260.448 250.705C258.243 250.585 256.249 250.339 254.467 249.967C252.713 249.591 251.211 249.183 249.961 248.744L248.118 240.571C250.43 241.531 253.115 242.301 256.175 242.882C259.263 243.459 262.529 243.53 265.973 243.095C269.893 242.6 272.695 241.592 274.38 240.071C276.062 238.522 276.737 236.432 276.404 233.8L276.325 233.17C276.109 231.462 275.554 230.11 274.661 229.113C273.791 228.085 272.425 227.291 270.562 226.729C268.696 226.14 266.205 225.673 263.089 225.326C258.99 224.848 255.625 224.107 252.995 223.102C250.39 222.066 248.402 220.625 247.031 218.778C245.656 216.904 244.78 214.469 244.402 211.473L244.349 211.053C243.779 206.545 244.839 202.884 247.527 200.07C250.215 197.256 254.555 195.471 260.547 194.715C264.382 194.23 267.706 194.195 270.517 194.608C273.353 194.989 275.711 195.53 277.591 196.232L279.318 203.822C277.125 202.904 274.65 202.221 271.891 201.773C269.129 201.297 266.082 201.269 262.75 201.69C260.146 202.018 258.098 202.576 256.604 203.362C255.107 204.12 254.077 205.089 253.515 206.269C252.949 207.421 252.762 208.753 252.953 210.265L252.974 210.433C253.172 212.001 253.692 213.301 254.533 214.332C255.375 215.364 256.732 216.202 258.605 216.847C260.503 217.461 263.143 217.981 266.525 218.407C270.54 218.896 273.816 219.606 276.351 220.537C278.911 221.437 280.874 222.796 282.242 224.615C283.606 226.405 284.487 228.882 284.887 232.046L284.993 232.886C285.619 237.842 284.482 241.797 281.584 244.751C278.686 247.705 274.018 249.589 267.578 250.402ZM307.042 244.395L300.451 192.193L308.892 191.128L315.483 243.329L307.042 244.395ZM285.365 199.773L284.474 192.717L324.455 187.669L325.346 194.725L285.365 199.773ZM357.858 220.486L356.978 213.514L371.803 211.642C375.162 211.218 377.494 210.085 378.797 208.242C380.125 206.368 380.602 203.947 380.227 200.979L379.765 197.325C379.38 194.273 378.329 192.031 376.612 190.598C374.895 189.165 372.371 188.659 369.039 189.08L354.088 190.967L353.213 184.038L368.332 182.129C374.492 181.351 379.166 182.212 382.354 184.711C385.567 187.178 387.495 190.959 388.138 196.055L388.653 200.128C389.296 205.224 388.37 209.38 385.875 212.596C383.38 215.813 379.052 217.81 372.893 218.587L357.858 220.486ZM354.489 238.404L347.712 184.733L355.985 183.688L359.968 215.227L360.487 219.002L362.804 237.354L354.489 238.404ZM410.586 231.321L402.145 232.387L395.368 178.715L403.809 177.65L410.586 231.321ZM405.863 224.664L434.001 221.111L434.902 228.251L406.765 231.804L405.863 224.664ZM439.286 227.697L448.971 171.947L462.032 170.298L485.272 221.891L476.747 222.967L456.737 176.684L455.688 176.816L447.811 226.621L439.286 227.697ZM448.144 211.347L447.263 204.376L471.663 201.295L472.544 208.266L448.144 211.347ZM510.249 219.804C503.389 220.67 498.011 219.415 494.115 216.038C490.246 212.659 487.868 207.455 486.981 200.427L485.475 188.5C484.591 181.501 485.605 175.898 488.515 171.69C491.45 167.451 496.347 164.899 503.207 164.032C505.307 163.767 507.247 163.707 509.029 163.852C510.811 163.997 512.425 164.277 513.871 164.691C515.317 165.106 516.571 165.573 517.632 166.094L519.28 173.736C517.487 172.825 515.445 172.087 513.155 171.523C510.865 170.959 508.236 170.864 505.269 171.239C500.957 171.783 497.856 173.469 495.966 176.296C494.104 179.119 493.468 182.869 494.058 187.545L495.511 199.052C496.098 203.699 497.66 207.171 500.197 209.468C502.762 211.761 506.256 212.628 510.68 212.07C513.592 211.702 516.116 210.971 518.254 209.876C520.415 208.75 522.26 207.479 523.788 206.063L524.118 214.085C523.22 214.852 522.095 215.634 520.745 216.431C519.42 217.195 517.87 217.875 516.096 218.468C514.354 219.087 512.405 219.532 510.249 219.804ZM534.368 215.692L527.592 162.02L535.907 160.97L542.684 214.642L534.368 215.692ZM536.846 215.379L535.955 208.324L567.915 204.288L568.806 211.344L536.846 215.379ZM536.144 191.233L535.264 184.262L563.99 180.635L564.87 187.606L536.144 191.233ZM530.913 168.726L530.027 161.713L561.735 157.709L562.62 164.723L530.913 168.726Z" fill="#DD2141"/>
<path d="M231.899 253.883L226.22 208.905L225.632 208.979L214.432 217.262L213.614 209.088L225.458 200.169L233.521 199.151L240.298 252.822L231.899 253.883ZM267.578 250.402C265.03 250.724 262.654 250.825 260.448 250.705C258.243 250.585 256.249 250.339 254.467 249.967C252.713 249.591 251.211 249.183 249.961 248.744L248.118 240.571C250.43 241.531 253.115 242.301 256.175 242.882C259.263 243.459 262.529 243.53 265.973 243.095C269.893 242.6 272.695 241.592 274.38 240.071C276.062 238.522 276.737 236.432 276.404 233.8L276.325 233.17C276.109 231.462 275.554 230.11 274.661 229.113C273.791 228.085 272.425 227.291 270.562 226.729C268.696 226.14 266.205 225.673 263.089 225.326C258.99 224.848 255.625 224.107 252.995 223.102C250.39 222.066 248.402 220.625 247.031 218.778C245.656 216.904 244.78 214.469 244.402 211.473L244.349 211.053C243.779 206.545 244.839 202.884 247.527 200.07C250.215 197.256 254.555 195.471 260.547 194.715C264.382 194.23 267.706 194.195 270.517 194.608C273.353 194.989 275.711 195.53 277.591 196.232L279.318 203.822C277.125 202.904 274.65 202.221 271.891 201.773C269.129 201.297 266.082 201.269 262.75 201.69C260.146 202.018 258.098 202.576 256.604 203.362C255.107 204.12 254.077 205.089 253.515 206.269C252.949 207.421 252.762 208.753 252.953 210.265L252.974 210.433C253.172 212.001 253.692 213.301 254.533 214.332C255.375 215.364 256.732 216.202 258.605 216.847C260.503 217.461 263.143 217.981 266.525 218.407C270.54 218.896 273.816 219.606 276.351 220.537C278.911 221.437 280.874 222.796 282.242 224.615C283.606 226.405 284.487 228.882 284.887 232.046L284.993 232.886C285.619 237.842 284.482 241.797 281.584 244.751C278.686 247.705 274.018 249.589 267.578 250.402ZM307.042 244.395L300.451 192.193L308.892 191.128L315.483 243.329L307.042 244.395ZM285.365 199.773L284.474 192.717L324.455 187.669L325.346 194.725L285.365 199.773ZM357.858 220.486L356.978 213.514L371.803 211.642C375.162 211.218 377.494 210.085 378.797 208.242C380.125 206.368 380.602 203.947 380.227 200.979L379.765 197.325C379.38 194.273 378.329 192.031 376.612 190.598C374.895 189.165 372.371 188.659 369.039 189.08L354.088 190.967L353.213 184.038L368.332 182.129C374.492 181.351 379.166 182.212 382.354 184.711C385.567 187.178 387.495 190.959 388.138 196.055L388.653 200.128C389.296 205.224 388.37 209.38 385.875 212.596C383.38 215.813 379.052 217.81 372.893 218.587L357.858 220.486ZM354.489 238.404L347.712 184.733L355.985 183.688L359.968 215.227L360.487 219.002L362.804 237.354L354.489 238.404ZM410.586 231.321L402.145 232.387L395.368 178.715L403.809 177.65L410.586 231.321ZM405.863 224.664L434.001 221.111L434.902 228.251L406.765 231.804L405.863 224.664ZM439.286 227.697L448.971 171.947L462.032 170.298L485.272 221.891L476.747 222.967L456.737 176.684L455.688 176.816L447.811 226.621L439.286 227.697ZM448.144 211.347L447.263 204.376L471.663 201.295L472.544 208.266L448.144 211.347ZM510.249 219.804C503.389 220.67 498.011 219.415 494.115 216.038C490.246 212.659 487.868 207.455 486.981 200.427L485.475 188.5C484.591 181.501 485.605 175.898 488.515 171.69C491.45 167.451 496.347 164.899 503.207 164.032C505.307 163.767 507.247 163.707 509.029 163.852C510.811 163.997 512.425 164.277 513.871 164.691C515.317 165.106 516.571 165.573 517.632 166.094L519.28 173.736C517.487 172.825 515.445 172.087 513.155 171.523C510.865 170.959 508.236 170.864 505.269 171.239C500.957 171.783 497.856 173.469 495.966 176.296C494.104 179.119 493.468 182.869 494.058 187.545L495.511 199.052C496.098 203.699 497.66 207.171 500.197 209.468C502.762 211.761 506.256 212.628 510.68 212.07C513.592 211.702 516.116 210.971 518.254 209.876C520.415 208.75 522.26 207.479 523.788 206.063L524.118 214.085C523.22 214.852 522.095 215.634 520.745 216.431C519.42 217.195 517.87 217.875 516.096 218.468C514.354 219.087 512.405 219.532 510.249 219.804ZM534.368 215.692L527.592 162.02L535.907 160.97L542.684 214.642L534.368 215.692ZM536.846 215.379L535.955 208.324L567.915 204.288L568.806 211.344L536.846 215.379ZM536.144 191.233L535.264 184.262L563.99 180.635L564.87 187.606L536.144 191.233ZM530.913 168.726L530.027 161.713L561.735 157.709L562.62 164.723L530.913 168.726Z" fill="#DD2141"/>
<path d="M338.233 326.544L332.783 283.382L339.763 282.501L345.213 325.663L338.233 326.544ZM320.31 289.649L319.573 283.815L352.631 279.641L353.367 285.475L320.31 289.649ZM370.151 322.514L369.427 316.785L382.727 315.105C385.551 314.749 387.48 313.917 388.515 312.611C389.549 311.304 389.935 309.609 389.672 307.526L389.536 306.449C389.267 304.319 388.459 302.763 387.112 301.781C385.762 300.776 383.606 300.46 380.642 300.834L367.586 302.483L366.893 296.996L379.88 295.356C382.542 295.02 384.359 294.226 385.33 292.975C386.321 291.697 386.689 290.052 386.435 288.038L386.365 287.482C386.116 285.514 385.379 284.055 384.154 283.104C382.929 282.154 380.939 281.852 378.184 282.2L365.127 283.849L364.408 278.154L378.124 276.422C383.009 275.805 386.635 276.3 389.001 277.906C391.365 279.489 392.766 282.017 393.204 285.489L393.283 286.115C393.619 288.777 393.267 290.926 392.227 292.563C391.185 294.176 389.4 295.318 386.875 295.99L386.919 296.337C389.932 296.545 392.203 297.399 393.733 298.899C395.286 300.396 396.254 302.661 396.637 305.694L396.804 307.013C397.283 310.81 396.543 313.89 394.584 316.254C392.625 318.618 389.156 320.114 384.179 320.743L370.151 322.514ZM365.324 323.124L359.721 278.746L366.596 277.878L372.199 322.255L365.324 323.124ZM410.842 317.376L410.101 311.508L420.622 310.179C424.28 309.718 426.897 308.376 428.475 306.154C430.075 303.929 430.642 300.965 430.174 297.261L428.955 287.608C428.484 283.881 427.199 281.15 425.099 279.416C423.018 277.656 420.149 277.007 416.492 277.469L405.936 278.802L405.203 273.003L416.003 271.639C421.883 270.897 426.504 271.83 429.868 274.44C433.228 277.026 435.261 281.108 435.965 286.687L437.193 296.41C437.897 301.989 436.946 306.472 434.34 309.858C431.731 313.222 427.486 315.275 421.606 316.017L410.842 317.376ZM406.084 317.977L400.481 273.599L407.356 272.731L412.96 317.109L406.084 317.977Z" fill="#DD2141"/>
<path d="M892.787 518.923L891.569 475.435L898.602 475.238L899.819 518.726L892.787 518.923ZM878.545 480.456L878.38 474.579L911.687 473.646L911.852 479.524L878.545 480.456ZM924.945 518.022L924.784 512.25L938.183 511.874C941.029 511.795 943.03 511.155 944.187 509.956C945.344 508.756 945.893 507.107 945.834 505.008L945.804 503.923C945.744 501.777 945.091 500.15 943.846 499.041C942.601 497.909 940.485 497.384 937.5 497.468L924.345 497.836L924.19 492.308L937.275 491.942C939.957 491.867 941.843 491.254 942.931 490.103C944.042 488.928 944.569 487.326 944.512 485.297L944.496 484.737C944.441 482.755 943.85 481.231 942.723 480.165C941.596 479.099 939.645 478.606 936.869 478.683L923.714 479.052L923.553 473.314L937.373 472.927C942.294 472.789 945.855 473.635 948.053 475.464C950.251 477.27 951.399 479.922 951.497 483.421L951.515 484.05C951.59 486.733 951.03 488.838 949.836 490.365C948.641 491.869 946.754 492.832 944.175 493.255L944.184 493.604C947.163 494.105 949.34 495.176 950.717 496.818C952.117 498.459 952.859 500.808 952.945 503.863L952.982 505.193C953.089 509.018 952.053 512.011 949.872 514.173C947.692 516.335 944.094 517.486 939.08 517.627L924.945 518.022ZM920.082 518.159L918.83 473.446L925.758 473.252L927.009 517.965L920.082 518.159ZM965.943 516.875L965.778 510.962L976.378 510.665C980.064 510.562 982.8 509.482 984.586 507.424C986.396 505.366 987.248 502.471 987.144 498.739L986.872 489.013C986.766 485.258 985.753 482.415 983.832 480.485C981.933 478.53 979.141 477.605 975.456 477.708L964.82 478.006L964.656 472.163L975.537 471.858C981.461 471.693 985.97 473.072 989.063 475.996C992.156 478.898 993.78 483.159 993.938 488.78L994.212 498.576C994.37 504.197 992.986 508.566 990.062 511.682C987.138 514.776 982.713 516.405 976.789 516.571L965.943 516.875ZM961.15 517.009L959.898 472.296L966.825 472.102L968.077 516.815L961.15 517.009Z" fill="#DD2141"/>
<path d="M1165.07 217.208L1175.48 174.967L1182.31 176.649L1171.9 218.891L1165.07 217.208ZM1161.58 176.338L1162.99 170.629L1195.34 178.6L1193.94 184.309L1161.58 176.338ZM1196.31 224.904L1197.69 219.297L1210.7 222.504C1213.47 223.185 1215.57 223.101 1217 222.253C1218.44 221.405 1219.4 219.961 1219.91 217.922L1220.17 216.869C1220.68 214.784 1220.48 213.042 1219.58 211.642C1218.68 210.219 1216.78 209.15 1213.88 208.435L1201.1 205.287L1202.43 199.918L1215.14 203.049C1217.74 203.691 1219.72 203.602 1221.08 202.783C1222.46 201.946 1223.39 200.542 1223.88 198.571L1224.01 198.027C1224.49 196.102 1224.32 194.475 1223.52 193.148C1222.72 191.821 1220.97 190.825 1218.27 190.161L1205.5 187.013L1206.87 181.44L1220.29 184.747C1225.07 185.924 1228.28 187.688 1229.91 190.036C1231.55 192.362 1231.95 195.225 1231.11 198.623L1230.96 199.235C1230.32 201.84 1229.22 203.72 1227.66 204.874C1226.11 206.005 1224.03 206.431 1221.44 206.152L1221.35 206.491C1224.09 207.767 1225.9 209.379 1226.79 211.328C1227.71 213.283 1227.8 215.745 1227.06 218.713L1226.75 220.004C1225.83 223.72 1224.03 226.329 1221.36 227.832C1218.68 229.335 1214.91 229.487 1210.03 228.287L1196.31 224.904ZM1191.58 223.741L1202.28 180.309L1209.01 181.967L1198.31 225.398L1191.58 223.741ZM1236.13 234.716L1237.54 228.972L1247.84 231.509C1251.42 232.391 1254.35 232.078 1256.61 230.571C1258.91 229.069 1260.5 226.506 1261.39 222.881L1263.72 213.433C1264.62 209.786 1264.4 206.776 1263.06 204.403C1261.75 202.014 1259.31 200.378 1255.73 199.497L1245.4 196.951L1246.79 191.276L1257.36 193.88C1263.12 195.298 1267.1 197.828 1269.3 201.47C1271.51 205.09 1271.94 209.631 1270.59 215.091L1268.25 224.606C1266.9 230.066 1264.41 233.909 1260.76 236.134C1257.12 238.337 1252.42 238.729 1246.66 237.311L1236.13 234.716ZM1231.47 233.569L1242.17 190.137L1248.9 191.795L1238.2 235.226L1231.47 233.569Z" fill="#DD2141"/>
<path d="M811.703 438.229L811.646 432.619L821.092 423.403C822.835 421.705 824.3 420.19 825.486 418.858C826.692 417.506 827.609 416.196 828.236 414.93C828.864 413.663 829.17 412.32 829.155 410.9L829.152 410.6C829.139 409.26 828.867 408.123 828.338 407.188C827.808 406.234 826.99 405.512 825.885 405.023C824.8 404.514 823.388 404.269 821.648 404.286C819.688 404.306 817.851 404.635 816.137 405.272C814.424 405.91 812.911 406.635 811.599 407.449L812.085 402.073C812.86 401.586 813.775 401.116 814.831 400.665C815.886 400.215 817.072 399.843 818.389 399.549C819.726 399.256 821.205 399.1 822.825 399.084C826.945 399.042 830.034 399.951 832.093 401.81C834.172 403.669 835.229 406.328 835.264 409.788L835.269 410.208C835.289 412.188 834.957 413.991 834.274 415.618C833.61 417.225 832.616 418.825 831.292 420.419C829.989 422.012 828.376 423.749 826.455 425.628L819.178 432.783L819.191 434.073L816.72 433.078L836.039 432.881L836.091 437.981L811.703 438.229ZM851.097 399.486L865.55 431.141L865.91 431.137L865.501 414.581L865.346 399.341L871.196 399.282L871.586 437.62L862.797 437.709L848.13 405.697L847.77 405.7L848.186 422.947L848.337 437.856L842.488 437.916L842.097 399.578L851.097 399.486ZM884.213 437.491L884.161 432.422L893.251 432.329C896.41 432.297 898.771 431.413 900.334 429.677C901.916 427.941 902.691 425.473 902.659 422.273L902.574 413.933C902.541 410.713 901.716 408.262 900.099 406.578C898.501 404.874 896.123 404.038 892.963 404.071L883.843 404.163L883.792 399.154L893.122 399.059C898.202 399.007 902.045 400.258 904.651 402.812C907.257 405.345 908.584 409.022 908.633 413.842L908.719 422.241C908.768 427.061 907.516 430.784 904.962 433.41C902.409 436.016 898.592 437.345 893.512 437.397L884.213 437.491ZM880.103 437.533L879.713 399.195L885.652 399.135L886.043 437.473L880.103 437.533ZM930.283 424.722L930.232 419.742L940.821 419.634C943.221 419.61 944.955 419.002 946.023 417.811C947.111 416.6 947.644 414.935 947.622 412.815L947.596 410.205C947.574 408.025 947.017 406.361 945.925 405.212C944.833 404.063 943.097 403.5 940.718 403.525L930.038 403.633L929.988 398.683L940.787 398.574C945.187 398.529 948.407 399.516 950.448 401.535C952.508 403.535 953.557 406.354 953.594 409.994L953.624 412.904C953.661 416.544 952.67 419.394 950.651 421.454C948.631 423.515 945.422 424.568 941.022 424.613L930.283 424.722ZM926.448 437.061L926.058 398.723L931.968 398.663L932.197 421.192L932.254 423.892L932.388 437.001L926.448 437.061ZM966.519 436.654L960.489 436.715L960.099 398.377L966.129 398.316L966.519 436.654ZM963.737 431.582L983.836 431.377L983.888 436.477L963.789 436.681L963.737 431.582ZM987.019 436.445L998.388 397.987L1007.72 397.892L1019.87 436.111L1013.78 436.173L1003.47 401.956L1002.72 401.964L993.109 436.383L987.019 436.445ZM994.59 425.657L994.539 420.678L1011.97 420.5L1012.02 425.48L994.59 425.657ZM1037.62 436.68C1032.72 436.73 1029.04 435.407 1026.57 432.712C1024.12 430.017 1022.87 426.16 1022.82 421.14L1022.74 412.62C1022.69 407.621 1023.86 403.759 1026.25 401.034C1028.66 398.289 1032.32 396.892 1037.22 396.842C1038.72 396.827 1040.09 396.943 1041.33 397.19C1042.57 397.438 1043.69 397.766 1044.67 398.176C1045.65 398.586 1046.5 399.018 1047.2 399.471L1047.74 404.986C1046.55 404.198 1045.17 403.512 1043.61 402.928C1042.04 402.343 1040.2 402.062 1038.08 402.084C1035 402.115 1032.68 403.049 1031.12 404.885C1029.58 406.72 1028.82 409.308 1028.86 412.648L1028.94 420.868C1028.97 424.188 1029.79 426.759 1031.39 428.583C1033.01 430.407 1035.4 431.303 1038.56 431.27C1040.64 431.249 1042.47 430.941 1044.07 430.344C1045.68 429.728 1047.08 428.983 1048.27 428.111L1047.85 433.786C1047.16 434.253 1046.3 434.712 1045.29 435.162C1044.29 435.592 1043.14 435.944 1041.85 436.217C1040.57 436.51 1039.16 436.665 1037.62 436.68ZM1054.94 435.754L1054.55 397.416L1060.49 397.355L1060.88 435.693L1054.94 435.754ZM1056.71 435.736L1056.66 430.696L1079.48 430.464L1079.54 435.504L1056.71 435.736ZM1058.18 418.68L1058.13 413.7L1078.65 413.491L1078.7 418.471L1058.18 418.68ZM1056.34 402.408L1056.29 397.398L1078.94 397.168L1078.99 402.177L1056.34 402.408Z" fill="#DD2141"/>
<path d="M1153.43 154.851C1152.22 154.599 1151.13 154.28 1150.16 153.892C1149.2 153.508 1148.36 153.111 1147.65 152.702C1146.94 152.278 1146.35 151.895 1145.89 151.553L1146.36 147.193C1147.25 147.945 1148.31 148.665 1149.56 149.355C1150.83 150.049 1152.26 150.562 1153.86 150.896C1155.33 151.203 1156.54 151.271 1157.5 151.103C1158.45 150.934 1159.2 150.561 1159.73 149.983C1160.27 149.39 1160.64 148.617 1160.83 147.662L1160.92 147.244C1161.13 146.26 1161.1 145.42 1160.85 144.724C1160.62 144.016 1160.1 143.419 1159.32 142.932C1158.54 142.449 1157.45 142.045 1156.03 141.718L1151.45 140.669L1152.18 137.167L1156.82 138.022C1158.21 138.281 1159.35 138.335 1160.24 138.183C1161.13 138.017 1161.82 137.67 1162.3 137.141C1162.79 136.601 1163.13 135.905 1163.31 135.054L1163.37 134.745C1163.65 133.38 1163.44 132.256 1162.74 131.373C1162.04 130.491 1160.66 129.835 1158.6 129.406C1157.04 129.081 1155.53 128.987 1154.06 129.125C1152.61 129.251 1151.31 129.479 1150.17 129.808L1151.35 126.053C1152.36 125.729 1153.6 125.513 1155.07 125.405C1156.55 125.285 1158.24 125.422 1160.13 125.818C1163.33 126.486 1165.56 127.609 1166.81 129.187C1168.07 130.769 1168.46 132.705 1167.98 134.996L1167.89 135.436C1167.66 136.537 1167.27 137.476 1166.73 138.251C1166.2 139.014 1165.51 139.589 1164.65 139.976C1163.79 140.349 1162.74 140.513 1161.51 140.471L1161.37 141.132L1161.33 140.641C1163.18 141.41 1164.43 142.39 1165.07 143.581C1165.72 144.76 1165.86 146.282 1165.47 148.147L1165.31 148.896C1164.79 151.421 1163.54 153.23 1161.58 154.323C1159.64 155.404 1156.92 155.58 1153.43 154.851ZM1184.88 160.886L1185.32 155.025C1185.41 153.955 1185.36 153.018 1185.17 152.213C1185.01 151.397 1184.62 150.711 1184.02 150.156C1183.41 149.601 1182.49 149.195 1181.26 148.937L1173.93 147.384L1174.66 143.904L1182.46 145.51C1184.26 145.886 1185.65 145.723 1186.61 145.019C1187.57 144.315 1188.21 143.192 1188.53 141.65L1188.66 141.034C1188.97 139.521 1188.82 138.271 1188.2 137.284C1187.58 136.296 1186.35 135.61 1184.51 135.227L1176.72 133.6L1177.47 129.966L1185.89 131.722C1189.02 132.375 1191.15 133.518 1192.3 135.151C1193.46 136.788 1193.79 138.803 1193.29 141.196L1193.14 141.901C1192.77 143.678 1192.06 145.045 1191 146.004C1189.95 146.967 1188.45 147.395 1186.48 147.291L1186.36 147.863L1184.64 146.838C1186.25 147.296 1187.43 147.91 1188.19 148.682C1188.96 149.456 1189.44 150.4 1189.64 151.513C1189.84 152.627 1189.89 153.941 1189.81 155.455L1189.46 161.842L1184.88 160.886ZM1168.65 157.498L1174.52 129.35L1178.86 130.255L1175.7 145.387L1175.38 147.043L1173.01 158.409L1168.65 157.498ZM1197.26 163.47L1198.04 159.748L1204.71 161.14C1207.03 161.625 1208.9 161.356 1210.33 160.336C1211.77 159.318 1212.73 157.635 1213.22 155.285L1214.5 149.162C1214.99 146.798 1214.78 144.869 1213.87 143.376C1212.97 141.871 1211.36 140.877 1209.04 140.392L1202.35 138.995L1203.11 135.317L1209.96 136.746C1213.69 137.525 1216.31 139.059 1217.81 141.348C1219.31 143.623 1219.69 146.53 1218.95 150.069L1217.66 156.236C1216.93 159.774 1215.41 162.301 1213.12 163.814C1210.83 165.313 1207.82 165.673 1204.09 164.895L1197.26 163.47ZM1194.24 162.84L1200.12 134.692L1204.48 135.602L1198.6 163.75L1194.24 162.84ZM1233.06 161.518L1233.83 157.862L1241.6 159.484C1243.36 159.852 1244.73 159.686 1245.71 158.985C1246.7 158.272 1247.35 157.138 1247.68 155.581L1248.08 153.665C1248.41 152.065 1248.27 150.756 1247.66 149.739C1247.04 148.721 1245.86 148.031 1244.11 147.666L1236.27 146.029L1237.03 142.395L1244.96 144.05C1248.19 144.724 1250.39 145.965 1251.56 147.772C1252.75 149.568 1253.07 151.802 1252.51 154.474L1252.06 156.611C1251.5 159.283 1250.32 161.212 1248.51 162.397C1246.7 163.582 1244.18 163.838 1240.95 163.164L1233.06 161.518ZM1228.27 169.942L1234.15 141.793L1238.49 142.699L1235.03 159.24L1234.64 161.227L1232.63 170.852L1228.27 169.942ZM1257.69 176.082L1253.27 175.158L1259.14 147.009L1263.57 147.933L1257.69 176.082ZM1256.47 171.919L1271.23 174.999L1270.45 178.743L1255.69 175.663L1256.47 171.919ZM1272.74 179.223L1287.25 152.876L1294.1 154.306L1296.86 184.256L1292.39 183.323L1290.34 156.6L1289.79 156.485L1277.22 180.156L1272.74 179.223ZM1280.02 172.537L1280.79 168.88L1293.58 171.551L1292.82 175.207L1280.02 172.537ZM1309.78 187.526C1306.18 186.775 1303.69 185.214 1302.32 182.844C1300.96 180.476 1300.66 177.449 1301.43 173.764L1302.74 167.508C1303.5 163.837 1304.98 161.196 1307.17 159.585C1309.38 157.962 1312.28 157.525 1315.88 158.276C1316.98 158.506 1317.97 158.811 1318.84 159.192C1319.71 159.573 1320.47 159.993 1321.13 160.451C1321.78 160.91 1322.33 161.362 1322.78 161.807L1322.28 165.933C1321.54 165.165 1320.64 164.441 1319.59 163.761C1318.53 163.082 1317.23 162.58 1315.67 162.255C1313.41 161.783 1311.56 162.094 1310.12 163.188C1308.7 164.285 1307.73 166.06 1307.22 168.512L1305.96 174.547C1305.45 176.985 1305.63 179 1306.51 180.593C1307.4 182.189 1309.01 183.229 1311.33 183.713C1312.86 184.032 1314.25 184.101 1315.52 183.92C1316.8 183.728 1317.95 183.408 1318.96 182.96L1317.74 187.05C1317.15 187.28 1316.45 187.479 1315.64 187.646C1314.84 187.801 1313.94 187.874 1312.95 187.866C1311.96 187.875 1310.91 187.762 1309.78 187.526ZM1322.61 189.63L1328.49 161.481L1332.85 162.392L1326.97 190.54L1322.61 189.63ZM1323.91 189.901L1324.68 186.201L1341.44 189.699L1340.67 193.399L1323.91 189.901ZM1327.73 177.643L1328.5 173.987L1343.56 177.131L1342.8 180.788L1327.73 177.643ZM1329 165.426L1329.76 161.748L1346.39 165.218L1345.62 168.897L1329 165.426Z" fill="#DD2141"/>
<path d="M1484.14 599.348C1482.19 587.455 1453.61 577.074 1418.27 575.785C1411.41 575.534 1404.77 575.644 1398.52 576.069C1393.18 573.943 1387.02 572.615 1380.42 572.374C1374.66 572.164 1369.17 572.803 1364.22 574.126C1364.24 573.936 1364.26 573.746 1364.27 573.551C1364.73 560.868 1348.86 549.99 1328.82 549.259C1312.61 548.668 1298.65 554.892 1293.65 563.999C1281.95 558.527 1267.9 555.072 1252.67 554.517C1249.88 554.415 1247.13 554.422 1244.41 554.513C1241.5 542.107 1225.39 532.176 1205.59 531.454C1189.27 530.859 1175 536.686 1168.35 545.562C1164.06 544.025 1159.25 543.073 1154.14 542.887C1135.47 542.206 1119.96 551.94 1119.5 564.623C1119.45 565.855 1119.56 567.069 1119.79 568.258C1119.65 568.248 1119.51 568.238 1119.37 568.233C1109.91 567.888 1101.05 569.38 1093.54 572.219C1087.16 569.678 1079.8 568.097 1071.92 567.81C1050.43 567.026 1032.09 576.1 1026.9 589.001C1015.38 588.625 1005.91 592.738 1005.71 598.23C1005.7 598.468 1005.71 598.703 1005.74 598.938C968.075 601.428 943.334 606.903 943.072 614.099C942.642 625.871 1007.79 637.8 1088.58 640.748C1115.72 641.738 1141.17 641.588 1163.02 640.502C1167.74 647.211 1177.88 652.08 1189.81 652.515C1199.17 652.856 1207.63 650.394 1213.35 646.255C1223.91 650.402 1236.06 652.982 1249.06 653.457C1272.73 654.32 1294.11 648.021 1308.43 637.453C1327.82 639.112 1348.71 640.391 1370.5 641.186C1473.14 644.93 1556.77 636.53 1557.28 622.424C1557.59 614.097 1528.85 605.643 1484.14 599.348Z" fill="#E9F6FC"/>
<path d="M1557.29 622.428C1556.78 636.533 1473.15 644.927 1370.5 641.183C1348.71 640.388 1327.82 639.11 1308.43 637.457C1294.11 648.02 1272.73 654.32 1249.06 653.457C1236.06 652.982 1223.91 650.398 1213.35 646.251C1207.64 650.395 1199.16 652.858 1189.81 652.516C1177.88 652.081 1167.74 647.212 1163.02 640.503C1141.17 641.584 1115.72 641.735 1088.58 640.745C1007.79 637.798 942.642 625.868 943.072 614.096C943.074 614.048 943.075 614.003 943.086 613.955C960.775 616.861 982.028 618.951 1004.92 619.786C1037.92 620.99 1067.7 619.345 1088.43 615.748C1094.51 618.466 1101.73 620.168 1109.52 620.453C1125.52 621.036 1139.58 615.473 1146.45 606.912C1146.45 607.032 1146.43 607.142 1146.42 607.253C1145.89 621.89 1163.65 634.419 1186.09 635.237C1199.84 635.739 1212.15 631.72 1219.75 625.175C1228.89 634.764 1244.81 641.452 1263.15 642.121C1284.49 642.899 1303.16 635.306 1311.93 623.724C1315.24 628.614 1322.57 632.182 1331.21 632.497C1342.95 632.925 1352.74 627.171 1353.36 619.577C1374.68 626.372 1404.86 631.226 1438.45 632.452C1490.03 634.333 1534.23 627.103 1550.87 615.381C1555.13 617.708 1557.38 620.068 1557.29 622.428Z" fill="#B5D7F7"/>
<path d="M1550.88 615.38C1534.23 627.107 1490.03 634.33 1438.45 632.448C1404.86 631.223 1374.68 626.375 1353.36 619.577C1352.74 627.17 1342.95 632.922 1331.21 632.493C1322.57 632.178 1315.24 628.617 1311.93 623.725C1303.16 635.305 1284.49 642.898 1263.15 642.12C1244.81 641.451 1228.89 634.766 1219.75 625.173C1212.15 631.721 1199.84 635.741 1186.09 635.24C1163.65 634.421 1145.89 621.888 1146.42 607.256C1146.43 607.144 1146.45 607.033 1146.45 606.916C1139.58 615.471 1125.52 621.033 1109.52 620.449C1101.73 620.165 1094.51 618.462 1088.43 615.748C1067.7 619.343 1037.92 620.989 1004.92 619.785C982.029 618.95 960.775 616.858 943.086 613.954C943.663 606.827 968.319 601.413 1005.74 598.938C1005.72 598.703 1005.7 598.464 1005.71 598.23C1005.91 592.734 1015.38 588.625 1026.9 589.001C1028.48 585.063 1031.3 581.477 1035.06 578.423C1043.59 571.475 1056.99 567.265 1071.92 567.81C1078.35 568.044 1084.43 569.14 1089.92 570.916C1091.15 571.312 1092.36 571.751 1093.54 572.219C1100.5 569.589 1108.63 568.11 1117.3 568.192C1117.99 568.193 1118.68 568.208 1119.37 568.233C1119.51 568.238 1119.65 568.248 1119.79 568.253C1119.56 567.064 1119.46 565.851 1119.5 564.623C1119.97 551.935 1135.48 542.206 1154.14 542.887C1156.06 542.957 1157.92 543.132 1159.73 543.408C1159.73 543.408 1159.74 543.404 1159.75 543.409C1162.79 543.871 1165.67 544.601 1168.35 545.557C1168.87 544.864 1169.44 544.187 1170.05 543.541C1177.25 535.812 1190.55 530.906 1205.59 531.454C1225.39 532.177 1241.51 542.108 1244.42 554.514C1247.13 554.422 1249.88 554.415 1252.67 554.517C1267.9 555.072 1281.96 558.523 1293.65 563.994C1298.66 554.887 1312.62 548.668 1328.82 549.259C1344.02 549.814 1356.84 556.214 1361.92 564.816C1363.55 567.544 1364.38 570.492 1364.27 573.552C1364.26 573.747 1364.24 573.931 1364.22 574.121C1369.17 572.804 1374.66 572.16 1380.42 572.37C1387.02 572.611 1393.18 573.938 1398.52 576.07C1404.77 575.644 1411.41 575.535 1418.27 575.785C1453.61 577.074 1482.19 587.455 1484.14 599.343C1516.21 603.86 1540.06 609.492 1550.88 615.38Z" fill="#E9F6FC"/>
<path d="M1550.88 615.379C1547.74 617.577 1543.65 619.624 1538.73 621.479C1530.17 619.22 1520.16 617.732 1509.43 617.341C1497.17 616.894 1470.19 616.212 1466.35 614.472C1471.74 611.556 1474.97 607.892 1475.12 603.824C1475.5 593.153 1454.59 583.725 1428.41 582.77C1402.24 581.815 1380.69 589.694 1380.3 600.365C1380.25 601.627 1380.51 602.866 1381.03 604.075C1374.47 604.807 1348.61 584.006 1330.27 581.205C1332.93 579.082 1334.55 576.38 1334.65 573.398C1334.92 566.099 1326.07 559.853 1314.88 559.445C1303.69 559.037 1294.41 564.621 1294.15 571.92C1293.98 576.534 1297.46 580.725 1302.87 583.289C1299.45 584.423 1296.32 585.88 1293.58 587.595C1284.22 582.731 1272.6 579.643 1259.91 579.18C1257.61 579.096 1255.33 579.101 1253.09 579.19C1246.96 575.429 1236.92 572.296 1224.74 570.432C1228.13 567.594 1230.19 564.03 1230.33 560.103C1230.7 550.173 1218.65 541.678 1203.43 541.123C1188.21 540.567 1175.58 548.162 1175.22 558.092C1175.21 558.214 1175.21 558.34 1175.21 558.463C1155.92 559.862 1140.88 570.232 1140.4 583.359C1140.25 587.583 1141.62 591.634 1144.19 595.279C1142.38 595.038 1140.53 594.872 1138.63 594.803C1123.77 594.261 1110.71 599.508 1104.36 607.565C1098.66 602.259 1088.6 598.516 1077.02 598.094C1064.18 597.625 1052.92 601.361 1047.25 607.204C1035.15 605.372 1021.57 604.096 1007.2 603.572C989.864 602.94 973.578 603.478 959.59 604.943C970.556 602.27 986.455 600.215 1005.74 598.938C1005.72 598.703 1005.7 598.463 1005.71 598.229C1005.91 592.733 1015.38 588.624 1026.9 589C1028.48 585.062 1031.3 581.477 1035.06 578.423C1043.59 571.474 1056.99 567.265 1071.92 567.809C1078.35 568.044 1084.43 569.139 1089.92 570.915C1091.15 571.311 1092.36 571.751 1093.54 572.218C1100.5 569.588 1108.63 568.109 1117.3 568.191C1117.99 568.192 1118.68 568.207 1119.37 568.233C1119.51 568.238 1119.65 568.248 1119.79 568.253C1119.56 567.064 1119.46 565.85 1119.5 564.622C1119.97 551.934 1135.48 542.206 1154.14 542.886C1156.06 542.956 1157.92 543.132 1159.73 543.407C1159.73 543.407 1159.74 543.403 1159.75 543.408C1162.79 543.87 1165.67 544.6 1168.35 545.556C1168.87 544.863 1169.44 544.186 1170.05 543.54C1177.25 535.811 1190.55 530.905 1205.59 531.454C1225.39 532.176 1241.51 542.107 1244.42 554.513C1247.13 554.422 1249.88 554.415 1252.67 554.516C1267.9 555.072 1281.96 558.522 1293.65 563.993C1298.66 554.886 1312.62 548.667 1328.82 549.258C1344.02 549.813 1356.84 556.213 1361.92 564.815C1363.55 567.543 1364.38 570.491 1364.27 573.551C1364.26 573.746 1364.24 573.93 1364.22 574.12C1369.17 572.803 1374.66 572.159 1380.42 572.369C1387.02 572.61 1393.18 573.937 1398.52 576.069C1404.77 575.643 1411.41 575.534 1418.27 575.784C1453.61 577.074 1482.19 587.454 1484.14 599.342C1516.21 603.859 1540.06 609.491 1550.88 615.379Z" fill="white"/>
<path d="M1538.73 621.478C1525.74 626.359 1506.94 629.933 1484.76 631.63C1474.48 632.421 1463.46 632.809 1451.96 632.737C1447.53 632.71 1443.02 632.618 1438.45 632.451C1407.01 631.304 1378.56 626.98 1357.56 620.855C1356.13 620.436 1354.73 620.009 1353.36 619.574C1353.08 622.928 1351.03 625.913 1347.81 628.171C1344.67 630.38 1340.43 631.887 1335.65 632.359C1334.94 632.429 1334.22 632.475 1333.49 632.497C1332.74 632.527 1331.97 632.523 1331.2 632.495C1324.53 632.252 1318.63 630.066 1314.77 626.816C1313.63 625.869 1312.68 624.832 1311.93 623.725C1310.02 626.248 1307.64 628.58 1304.87 630.682C1294.9 638.217 1279.83 642.727 1263.15 642.118C1244.81 641.449 1228.88 634.767 1219.75 625.177C1216.26 628.177 1211.77 630.649 1206.62 632.399C1200.54 634.456 1193.53 635.511 1186.09 635.24C1180.44 635.034 1175.08 634.082 1170.24 632.546C1155.87 627.974 1146.02 618.203 1146.42 607.254C1146.43 607.143 1146.45 607.033 1146.45 606.913C1139.58 615.476 1125.52 621.036 1109.52 620.452C1109.31 620.444 1109.1 620.437 1108.9 620.425C1105.92 620.292 1103.03 619.945 1100.25 619.406C1096 618.595 1092.02 617.346 1088.43 615.75C1087.19 615.965 1085.91 616.174 1084.6 616.377C1073.22 618.13 1059.45 619.339 1044.13 619.864C1031.91 620.291 1018.69 620.286 1004.92 619.783C982.028 618.948 960.775 616.862 943.085 613.957C943.356 610.506 949.299 607.456 959.581 604.944C959.581 604.944 959.581 604.944 959.59 604.945C973.577 603.479 989.863 602.941 1007.2 603.573C1021.57 604.097 1035.15 605.373 1047.25 607.207C1052.92 601.361 1064.18 597.628 1077.02 598.096C1088.6 598.519 1098.66 602.259 1104.36 607.565C1110.71 599.508 1123.77 594.264 1138.63 594.806C1140.53 594.876 1142.38 595.035 1144.19 595.279C1141.62 591.638 1140.25 587.584 1140.4 583.358C1140.88 570.234 1155.92 559.867 1175.21 558.465C1175.21 558.34 1175.21 558.214 1175.21 558.094C1175.58 548.161 1188.2 540.569 1203.43 541.124C1218.65 541.679 1230.7 550.171 1230.33 560.105C1230.19 564.032 1228.12 567.595 1224.74 570.43C1236.91 572.296 1246.96 575.429 1253.09 579.19C1255.33 579.103 1257.61 579.094 1259.91 579.178C1272.6 579.641 1284.22 582.73 1293.58 587.597C1296.32 585.88 1299.45 584.428 1302.87 583.29C1297.46 580.726 1293.98 576.537 1294.15 571.921C1294.41 564.621 1303.69 559.041 1314.88 559.449C1326.07 559.857 1334.92 566.098 1334.65 573.399C1334.54 576.383 1332.93 579.085 1330.27 581.205C1348.61 584.009 1368.42 587.267 1381.03 604.078C1380.51 602.868 1380.25 601.625 1380.3 600.365C1380.69 589.695 1402.23 581.816 1428.41 582.771C1454.59 583.726 1475.5 593.153 1475.11 603.823C1474.97 607.895 1471.74 611.555 1466.35 614.472C1487.63 607.735 1497.17 616.897 1509.43 617.345C1520.16 617.736 1530.17 619.219 1538.73 621.478Z" fill="#E9F6FC"/>
<path d="M1142.42 627.182C1142.42 627.182 1116.28 641.363 1071.2 629.694C1071.2 629.694 1113.34 647.742 1142.42 627.182Z" fill="#E9F6FC"/>
<path d="M1223.77 635.718C1223.77 635.718 1225.2 644.551 1261.1 644.682C1261.1 644.682 1223.13 653.256 1223.77 635.718Z" fill="#E9F6FC"/>
<path d="M1191.91 609.135C1191.91 609.135 1202 640.166 1261.93 622.01C1261.93 622.01 1214.13 632.061 1191.91 609.135Z" fill="#B5D7F7"/>
<path d="M1321.78 618.159C1321.78 618.159 1364.2 631.758 1375.37 611.501C1375.37 611.501 1362.28 623.531 1321.78 618.159Z" fill="#B5D7F7"/>
<path d="M1071.87 611.241C1071.87 611.241 1084.23 623.676 1113.93 614.934C1113.93 614.934 1083.26 619.273 1071.87 611.241Z" fill="#B5D7F7"/>
<path d="M1163.89 596.316C1163.89 596.316 1204.89 596.16 1205.75 572.692C1205.75 572.692 1215.61 603.805 1163.89 596.316Z" fill="#B5D7F7"/>
<path d="M1201.57 583.588C1201.57 583.588 1229.14 592.862 1242.1 585.066C1242.1 585.066 1231.11 595.528 1201.39 588.545L1201.57 583.588Z" fill="#B5D7F7"/>
<path d="M1436.87 611.222C1436.87 611.222 1441.38 633.18 1496.84 630.482C1496.84 630.482 1495.68 634.695 1496.66 635.388C1497.65 636.076 1476.29 637.238 1475.38 637.782C1474.48 638.322 1432.73 633.908 1436.87 611.222Z" fill="#B5D7F7"/>
<path d="M307.706 472.352C306.403 464.956 289.98 458.999 269.853 458.85C265.944 458.821 262.173 459.013 258.62 459.395C255.551 458.165 252.023 457.45 248.264 457.422C244.984 457.397 241.872 457.899 239.08 458.817C239.085 458.698 239.095 458.579 239.096 458.457C239.155 450.522 229.95 444.019 218.537 443.934C209.311 443.866 201.468 448.014 198.769 453.799C192.027 450.596 183.974 448.698 175.304 448.634C173.716 448.622 172.15 448.678 170.605 448.785C168.75 441.086 159.425 435.179 148.149 435.096C138.855 435.027 130.83 438.933 127.19 444.604C124.725 443.723 121.973 443.217 119.065 443.196C108.433 443.117 99.7659 449.488 99.707 457.423C99.7013 458.194 99.779 458.95 99.9297 459.689C99.8502 459.686 99.7706 459.682 99.6902 459.681C94.3066 459.641 89.2872 460.738 85.0617 462.652C81.3931 461.183 77.1779 460.331 72.6886 460.298C60.4552 460.207 50.1682 466.219 47.4208 474.377C40.8614 474.356 35.5388 477.103 35.5133 480.538C35.5122 480.688 35.5243 480.834 35.5432 480.98C14.1563 483.236 0.169824 487.117 0.136407 491.619C0.0817443 498.984 37.3349 505.229 83.3429 505.57C98.7999 505.685 113.275 505.119 125.69 504.034C128.479 508.14 134.33 510.994 141.121 511.044C146.449 511.084 151.226 509.388 154.412 506.695C160.485 509.091 167.442 510.478 174.845 510.533C188.32 510.633 200.385 506.299 208.358 499.429C219.419 500.106 231.324 500.517 243.734 500.609C302.185 501.043 349.622 494.24 349.687 485.416C349.726 480.206 333.243 475.456 307.706 472.352Z" fill="#E9F6FC"/>
<path d="M349.692 485.418C349.627 494.242 302.185 501.041 243.733 500.607C231.324 500.515 219.417 500.105 208.36 499.432C200.384 506.299 188.324 510.633 174.845 510.533C167.44 510.478 160.487 509.089 154.411 506.693C151.229 509.389 146.449 511.085 141.121 511.045C134.328 510.995 128.481 508.141 125.689 504.035C113.276 505.117 98.8011 505.684 83.3432 505.569C37.3349 505.227 0.0817652 498.982 0.136426 491.617C0.136653 491.587 0.136859 491.559 0.14212 491.528C10.2519 493.016 22.3764 493.927 35.4126 494.024C54.2073 494.164 71.1228 492.583 82.8577 489.95C86.358 491.536 90.4911 492.466 94.929 492.498C104.041 492.566 111.948 488.829 115.721 483.351C115.721 483.426 115.71 483.495 115.71 483.564C115.642 492.722 125.948 500.221 138.727 500.316C146.559 500.374 153.496 497.634 157.714 493.403C163.065 499.226 172.231 503.109 182.675 503.187C194.827 503.277 205.33 498.185 210.131 490.784C212.094 493.779 216.321 495.872 221.237 495.908C227.928 495.958 233.402 492.18 233.632 487.423C245.869 491.274 263.119 493.747 282.249 493.889C311.622 494.107 336.65 488.767 345.928 481.133C348.389 482.508 349.703 483.941 349.692 485.418Z" fill="#B5D7F7"/>
<path d="M345.929 481.132C336.648 488.769 311.622 494.104 282.249 493.886C263.12 493.744 245.869 491.275 233.632 487.423C233.402 492.179 227.928 495.956 221.237 495.906C216.322 495.869 212.094 493.78 210.132 490.784C205.33 498.184 194.827 503.276 182.676 503.186C172.231 503.108 163.065 499.227 157.714 493.401C153.497 497.635 146.559 500.375 138.727 500.317C125.949 500.222 115.642 492.72 115.71 483.566C115.711 483.496 115.721 483.426 115.722 483.353C111.948 488.827 104.042 492.564 94.9293 492.496C90.4915 492.463 86.3585 491.533 82.858 489.949C71.1231 492.582 54.2077 494.163 35.4127 494.024C22.3769 493.927 10.2522 493.014 0.142513 491.527C0.355624 487.063 14.295 483.222 35.5452 480.98C35.5259 480.834 35.5117 480.684 35.5128 480.538C35.5383 477.1 40.8609 474.356 47.4224 474.377C48.2586 471.887 49.8031 469.593 51.8903 467.615C56.6345 463.114 64.1897 460.235 72.6897 460.298C76.3512 460.325 79.8286 460.896 82.9785 461.904C83.6865 462.129 84.3841 462.381 85.0612 462.652C88.9772 460.879 93.5777 459.804 98.5153 459.694C98.9064 459.681 99.2974 459.678 99.6931 459.681C99.7701 459.682 99.8522 459.685 99.9296 459.686C99.7811 458.947 99.7042 458.191 99.7099 457.422C99.7688 449.485 108.435 443.117 119.064 443.196C120.155 443.204 121.219 443.279 122.251 443.417C122.251 443.417 122.257 443.414 122.261 443.418C123.998 443.65 125.651 444.052 127.19 444.6C127.476 444.157 127.787 443.724 128.125 443.309C132.096 438.345 139.582 435.032 148.149 435.095C159.427 435.179 168.753 441.086 170.608 448.785C172.152 448.678 173.716 448.622 175.305 448.634C183.975 448.698 192.03 450.593 198.769 453.795C201.47 448.011 209.312 443.865 218.538 443.934C227.197 443.998 234.59 447.76 237.621 453.041C238.591 454.716 239.113 456.543 239.099 458.457C239.098 458.579 239.086 458.695 239.081 458.814C241.874 457.898 244.984 457.394 248.265 457.418C252.024 457.446 255.552 458.162 258.623 459.395C262.174 459.012 265.945 458.821 269.853 458.85C289.981 458.999 306.403 464.956 307.706 472.349C326.023 474.576 339.681 477.653 345.929 481.132Z" fill="#E9F6FC"/>
<path d="M345.929 481.132C344.183 482.564 341.889 483.919 339.12 485.17C334.213 483.917 328.494 483.173 322.385 483.128C315.402 483.076 300.04 483.151 297.831 482.135C300.849 480.212 302.625 477.863 302.644 475.318C302.694 468.642 290.644 463.138 275.736 463.028C260.829 462.917 248.699 468.241 248.649 474.917C248.643 475.706 248.808 476.476 249.126 477.222C245.403 477.801 230.357 465.282 219.881 463.872C221.357 462.496 222.234 460.777 222.248 458.911C222.282 454.345 217.146 450.606 210.775 450.559C204.403 450.512 199.213 454.174 199.179 458.74C199.158 461.627 201.206 464.182 204.327 465.683C202.398 466.455 200.642 467.424 199.111 468.547C193.707 465.681 187.045 463.967 179.82 463.913C178.509 463.903 177.212 463.949 175.941 464.046C172.394 461.809 166.627 460.038 159.671 459.099C161.551 457.263 162.668 454.997 162.687 452.54C162.733 446.328 155.745 441.243 147.076 441.179C138.405 441.114 131.344 446.095 131.298 452.307C131.297 452.383 131.297 452.463 131.302 452.539C120.348 453.771 111.962 460.532 111.901 468.744C111.882 471.387 112.727 473.893 114.248 476.123C113.215 476.006 112.157 475.937 111.077 475.929C102.612 475.866 95.2682 479.388 91.7845 484.541C88.4603 481.331 82.6758 479.178 76.083 479.129C68.7708 479.075 62.4213 481.619 59.2922 485.376C52.377 484.456 44.6311 483.911 36.4497 483.85C26.5763 483.777 17.3201 484.415 9.38647 485.591C15.5817 483.716 24.5934 482.137 35.5451 480.981C35.5258 480.834 35.5116 480.685 35.5127 480.538C35.5382 477.1 40.8608 474.356 47.4223 474.377C48.2585 471.887 49.803 469.594 51.8902 467.616C56.6344 463.115 64.1896 460.235 72.6897 460.298C76.3511 460.325 79.8285 460.897 82.9784 461.905C83.6864 462.13 84.3841 462.382 85.0611 462.652C88.9771 460.879 93.5776 459.804 98.5152 459.694C98.9063 459.682 99.2974 459.679 99.693 459.682C99.77 459.682 99.8521 459.686 99.9295 459.686C99.781 458.948 99.7041 458.191 99.7098 457.423C99.7687 449.485 108.435 443.117 119.064 443.196C120.155 443.204 121.219 443.279 122.251 443.418C122.251 443.418 122.257 443.415 122.261 443.418C123.998 443.65 125.651 444.053 127.19 444.601C127.475 444.158 127.787 443.724 128.125 443.309C132.096 438.345 139.582 435.032 148.149 435.096C159.427 435.179 168.753 441.086 170.608 448.785C172.152 448.678 173.716 448.622 175.305 448.634C183.975 448.699 192.03 450.594 198.768 453.796C201.47 448.011 209.312 443.866 218.538 443.934C227.197 443.999 234.59 447.76 237.621 453.041C238.591 454.716 239.113 456.543 239.098 458.457C239.098 458.579 239.086 458.695 239.08 458.814C241.874 457.899 244.984 457.394 248.265 457.419C252.024 457.447 255.551 458.162 258.623 459.395C262.174 459.013 265.945 458.821 269.853 458.85C289.98 459 306.403 464.956 307.706 472.349C326.023 474.577 339.681 477.653 345.929 481.132Z" fill="white"/>
<path d="M339.119 485.169C331.808 488.46 321.166 491.043 308.578 492.515C302.742 493.201 296.48 493.648 289.937 493.816C287.417 493.882 284.85 493.908 282.248 493.889C264.343 493.756 248.088 491.581 236.043 488.144C235.222 487.909 234.417 487.668 233.631 487.421C233.529 489.522 232.409 491.426 230.614 492.897C228.865 494.335 226.476 495.357 223.763 495.74C223.362 495.797 222.95 495.839 222.538 495.866C222.111 495.899 221.674 495.911 221.237 495.908C217.437 495.88 214.047 494.623 211.793 492.664C211.134 492.093 210.573 491.463 210.131 490.785C209.086 492.397 207.768 493.899 206.225 495.263C200.676 500.157 192.178 503.256 182.675 503.185C172.231 503.108 163.065 499.228 157.713 493.404C155.776 495.344 153.264 496.972 150.36 498.161C146.935 499.56 142.964 500.349 138.727 500.318C135.508 500.294 132.446 499.799 129.666 498.929C121.416 496.338 115.659 490.415 115.71 483.565C115.71 483.496 115.721 483.427 115.721 483.351C111.947 488.831 104.041 492.566 94.9288 492.498C94.8103 492.497 94.6922 492.496 94.5788 492.493C92.8769 492.465 91.2278 492.302 89.6409 492.016C87.2062 491.589 84.9227 490.882 82.8573 489.952C82.1518 490.109 81.4303 490.263 80.6887 490.414C74.2407 491.721 66.4265 492.732 57.7205 493.345C50.7742 493.839 43.254 494.081 35.412 494.023C22.3764 493.926 10.252 493.017 0.142003 491.53C0.240415 489.368 3.57205 487.352 9.3813 485.591C9.3813 485.591 9.3813 485.591 9.38634 485.591C17.3199 484.416 26.5757 483.777 36.4495 483.85C44.6306 483.911 52.3765 484.456 59.2918 485.377C62.4207 481.619 68.7703 479.076 76.0824 479.131C82.675 479.18 88.4599 481.33 91.7838 484.541C95.2678 479.387 102.612 475.868 111.076 475.931C112.156 475.939 113.215 476.004 114.248 476.123C112.726 473.895 111.881 471.387 111.901 468.743C111.962 460.532 120.348 453.775 131.301 452.54C131.296 452.462 131.297 452.383 131.297 452.308C131.343 446.094 138.405 441.114 147.075 441.179C155.745 441.243 162.732 446.327 162.686 452.541C162.668 454.998 161.551 457.263 159.67 459.098C166.626 460.038 172.393 461.809 175.941 464.045C177.211 463.95 178.508 463.902 179.819 463.912C187.044 463.965 193.706 465.68 199.11 468.547C200.641 467.424 202.397 466.458 204.326 465.683C201.206 464.182 199.157 461.628 199.179 458.741C199.213 454.173 204.403 450.514 210.774 450.561C217.145 450.609 222.281 454.344 222.247 458.912C222.233 460.779 221.356 462.498 219.88 463.872C230.356 465.283 241.68 466.951 249.125 477.223C248.807 476.477 248.643 475.705 248.648 474.916C248.698 468.241 260.828 462.917 275.736 463.028C290.643 463.138 302.693 468.642 302.643 475.317C302.624 477.864 300.848 480.212 297.83 482.134C309.826 477.529 315.401 483.078 322.384 483.13C328.493 483.175 334.212 483.916 339.119 485.169Z" fill="#E9F6FC"/>
<path d="M113.755 496.093C113.755 496.093 99.1134 505.441 73.2775 498.986C73.2775 498.986 97.5419 509.482 113.755 496.093Z" fill="#E9F6FC"/>
<path d="M160.17 499.917C160.17 499.917 161.128 505.41 181.552 504.825C181.552 504.825 160.089 510.889 160.17 499.917Z" fill="#E9F6FC"/>
<path d="M141.615 483.896C141.615 483.896 147.859 503.101 181.657 490.641C181.657 490.641 154.626 497.81 141.615 483.896Z" fill="#B5D7F7"/>
<path d="M215.645 487.123C215.645 487.123 239.997 494.834 246.025 481.968C246.025 481.968 238.768 489.729 215.645 487.123Z" fill="#B5D7F7"/>
<path d="M73.3634 487.441C73.3634 487.441 80.5931 494.983 97.3511 488.967C97.3511 488.967 79.9698 492.249 73.3634 487.441Z" fill="#B5D7F7"/>
<path d="M125.472 476.405C125.472 476.405 148.795 475.546 148.904 460.864C148.904 460.864 155.015 480.125 125.472 476.405Z" fill="#B5D7F7"/>
<path d="M146.701 467.751C146.701 467.751 162.534 473.035 169.782 467.922C169.782 467.922 163.7 474.664 146.678 470.852L146.701 467.751Z" fill="#B5D7F7"/>
<path d="M281.005 480.651C281.005 480.651 283.927 494.29 315.434 491.574C315.434 491.574 314.842 494.228 315.411 494.643C315.981 495.055 303.849 496.177 303.343 496.534C302.838 496.889 279.013 494.905 281.005 480.651Z" fill="#B5D7F7"/>
<path d="M805.245 547.171C803.402 532.243 774.914 519.465 739.571 518.175C732.707 517.925 726.071 518.125 719.808 518.718C714.492 516.095 708.338 514.485 701.738 514.244C695.977 514.034 690.481 514.888 685.523 516.596C685.539 516.358 685.563 516.119 685.572 515.874C686.154 499.931 670.378 486.408 650.337 485.677C634.135 485.086 620.109 493.038 615.02 504.53C603.372 497.763 589.341 493.553 574.117 492.998C571.329 492.896 568.574 492.93 565.854 493.07C563.06 477.506 547.037 465.177 527.235 464.454C510.916 463.859 496.584 471.316 489.85 482.533C485.572 480.641 480.77 479.491 475.663 479.305C456.993 478.624 441.386 491.002 440.804 506.946C440.748 508.495 440.839 510.02 441.059 511.512C440.919 511.501 440.78 511.489 440.639 511.484C431.185 511.139 422.303 513.097 414.765 516.735C408.41 513.602 401.058 511.684 393.174 511.396C371.693 510.613 353.262 522.189 347.944 538.45C336.424 538.085 326.91 543.344 326.658 550.247C326.647 550.547 326.66 550.842 326.684 551.137C288.983 554.62 264.183 561.731 263.853 570.778C263.313 585.576 328.37 599.959 409.16 602.906C436.303 603.896 461.762 603.469 483.633 601.9C488.284 610.288 498.39 616.311 510.314 616.746C519.671 617.088 528.163 613.914 533.922 608.659C544.445 613.772 556.58 616.901 569.58 617.375C593.243 618.238 614.695 610.121 629.114 596.706C648.5 598.609 669.386 600.021 691.177 600.816C793.818 604.561 877.549 593.22 878.196 575.488C878.578 565.02 849.912 554.664 805.245 547.171Z" fill="#E9F6FC"/>
<path d="M878.204 575.493C877.557 593.223 793.819 604.557 691.176 600.812C669.386 600.017 648.497 598.608 629.116 596.712C614.693 610.121 593.249 618.238 569.58 617.375C556.577 616.901 544.449 613.767 533.921 608.654C528.168 613.916 519.67 617.09 510.315 616.748C498.386 616.313 488.289 610.289 483.631 601.901C461.764 603.465 436.305 603.893 409.161 602.903C328.37 599.955 263.313 585.573 263.853 570.775C263.855 570.713 263.857 570.658 263.868 570.597C281.536 574.083 302.777 576.51 325.669 577.345C358.672 578.549 388.479 576.203 409.249 571.489C415.302 574.848 422.505 576.92 430.298 577.204C446.299 577.787 460.412 570.665 467.371 559.841C467.365 559.992 467.342 560.131 467.337 560.27C466.666 578.67 484.317 594.249 506.757 595.067C520.509 595.569 532.859 590.403 540.522 582.107C549.571 594.072 565.437 602.328 583.776 602.997C605.115 603.775 623.869 594.058 632.749 579.419C636.016 585.534 643.315 589.949 651.947 590.264C663.696 590.692 673.538 583.369 674.23 573.819C695.491 582.16 725.641 587.978 759.233 589.203C810.813 591.085 855.094 581.584 871.851 566.696C876.091 569.581 878.312 572.526 878.204 575.493Z" fill="#B5D7F7"/>
<path d="M871.852 566.695C855.09 581.588 810.812 591.08 759.232 589.199C725.641 587.973 695.49 582.163 674.229 573.819C673.538 583.368 663.695 590.688 651.947 590.259C643.315 589.944 636.015 585.538 632.748 579.421C623.869 594.056 605.114 603.774 583.776 602.995C565.436 602.326 549.57 594.075 540.521 582.104C532.859 590.405 520.509 595.572 506.756 595.07C484.316 594.252 466.666 578.667 467.337 560.274C467.342 560.133 467.365 559.992 467.37 559.845C460.411 570.662 446.299 577.783 430.298 577.2C422.505 576.915 415.302 574.843 409.249 571.488C388.478 576.202 358.672 578.549 325.668 577.345C302.777 576.51 281.535 574.079 263.868 570.595C264.511 561.633 289.227 554.598 326.687 551.138C326.662 550.842 326.646 550.541 326.656 550.247C326.908 543.338 336.423 538.085 347.946 538.451C349.565 533.487 352.416 528.954 356.201 525.081C364.806 516.268 378.249 510.852 393.176 511.397C399.605 511.631 405.679 512.951 411.151 515.131C412.381 515.618 413.591 516.159 414.764 516.735C421.749 513.365 429.894 511.43 438.573 511.452C439.261 511.446 439.948 511.459 440.643 511.485C440.778 511.49 440.922 511.501 441.058 511.506C440.842 510.014 440.752 508.489 440.808 506.946C441.39 490.996 456.996 478.624 475.661 479.305C477.576 479.375 479.44 479.578 481.245 479.907C481.245 479.907 481.255 479.901 481.263 479.908C484.299 480.46 487.179 481.35 489.848 482.527C490.377 481.651 490.95 480.795 491.568 479.977C498.843 470.196 512.192 463.906 527.235 464.455C547.039 465.177 563.064 477.507 565.859 493.071C568.577 492.931 571.327 492.896 574.117 492.998C589.341 493.553 603.376 497.758 615.019 504.524C620.113 493.032 634.137 485.086 650.337 485.677C665.543 486.232 678.302 494.155 683.308 504.918C684.91 508.331 685.716 512.028 685.576 515.875C685.567 516.12 685.539 516.352 685.522 516.59C690.485 514.888 695.978 514.028 701.739 514.238C708.34 514.479 714.492 516.089 719.813 518.718C726.073 518.125 732.709 517.925 739.571 518.176C774.915 519.465 803.401 532.243 805.244 547.165C837.283 552.541 861.087 559.396 871.852 566.695Z" fill="#E9F6FC"/>
<path d="M871.852 566.694C868.7 569.486 864.588 572.096 859.65 574.473C851.106 571.714 841.106 569.939 830.379 569.548C818.115 569.1 791.129 568.496 787.31 566.345C792.727 562.63 795.988 557.995 796.175 552.881C796.664 539.467 775.831 527.814 749.654 526.859C723.475 525.904 701.849 536.008 701.36 549.422C701.302 551.009 701.544 552.563 702.058 554.078C695.485 555.059 669.81 529.16 651.495 525.812C654.171 523.118 655.814 519.707 655.951 515.958C656.286 506.783 647.491 499.016 636.303 498.608C625.114 498.2 615.778 505.305 615.443 514.481C615.231 520.281 618.675 525.516 624.066 528.687C620.631 530.144 617.489 532.005 614.732 534.186C605.413 528.16 593.814 524.388 581.127 523.925C578.825 523.841 576.544 523.869 574.306 524.002C568.211 519.333 558.188 515.489 546.026 513.261C549.44 509.663 551.539 505.164 551.719 500.227C552.174 487.744 540.208 477.181 524.984 476.626C509.759 476.07 497.055 485.733 496.6 498.216C496.595 498.369 496.589 498.529 496.593 498.682C477.28 500.621 462.143 513.795 461.541 530.296C461.347 535.607 462.681 540.685 465.218 545.242C463.411 544.956 461.555 544.765 459.659 544.696C444.796 544.154 431.684 550.87 425.254 561.056C419.609 554.441 409.578 549.83 398.002 549.408C385.161 548.94 373.855 553.741 368.133 561.137C356.042 558.948 342.47 557.472 328.103 556.948C310.765 556.315 294.469 557.144 280.463 559.117C291.457 555.654 307.381 552.923 326.687 551.137C326.662 550.841 326.646 550.54 326.657 550.246C326.909 543.337 336.423 538.085 347.947 538.45C349.566 533.486 352.417 528.953 356.202 525.08C364.806 516.267 378.25 510.851 393.176 511.396C399.606 511.63 405.679 512.95 411.151 515.13C412.381 515.617 413.591 516.158 414.764 516.734C421.749 513.364 429.895 511.429 438.574 511.451C439.262 511.446 439.949 511.458 440.643 511.484C440.779 511.489 440.923 511.5 441.059 511.505C440.842 510.013 440.753 508.489 440.809 506.945C441.391 490.995 456.997 478.623 475.661 479.304C477.576 479.374 479.44 479.577 481.246 479.906C481.246 479.906 481.255 479.901 481.263 479.907C484.299 480.459 487.179 481.349 489.849 482.526C490.377 481.65 490.951 480.794 491.569 479.976C498.843 470.195 512.193 463.905 527.236 464.454C547.039 465.176 563.064 477.506 565.859 493.07C568.578 492.93 571.327 492.895 574.118 492.997C589.342 493.552 603.376 497.757 615.019 504.523C620.113 493.031 634.137 485.085 650.338 485.676C665.543 486.231 678.302 494.154 683.308 504.917C684.91 508.33 685.716 512.027 685.576 515.874C685.567 516.119 685.54 516.351 685.523 516.589C690.485 514.888 695.978 514.027 701.739 514.237C708.34 514.478 714.493 516.088 719.813 518.717C726.074 518.124 732.709 517.924 739.572 518.175C774.915 519.464 803.402 532.242 805.244 547.164C837.283 552.541 861.087 559.395 871.852 566.694Z" fill="white"/>
<path d="M872.041 605.233C859.001 611.488 840.154 616.156 817.955 618.497C807.662 619.587 796.637 620.179 785.134 620.195C780.703 620.203 776.194 620.13 771.625 619.963C740.182 618.816 711.762 613.647 690.814 606.147C689.386 605.634 687.986 605.111 686.621 604.576C686.315 608.794 684.232 612.564 680.991 615.433C677.832 618.238 673.575 620.172 668.787 620.809C668.078 620.905 667.352 620.969 666.628 621.003C665.876 621.049 665.107 621.051 664.339 621.023C657.666 620.779 651.787 618.087 647.948 614.04C646.824 612.86 645.877 611.565 645.141 610.181C643.208 613.37 640.803 616.323 638.011 618.99C627.969 628.553 612.856 634.363 596.169 633.754C577.828 633.085 561.963 624.837 552.915 612.869C549.394 616.672 544.885 619.822 539.711 622.068C533.611 624.711 526.59 626.103 519.148 625.831C513.497 625.625 508.149 624.479 503.317 622.594C488.982 616.983 479.227 604.795 479.73 591.031C479.735 590.892 479.757 590.754 479.763 590.603C472.804 601.429 458.692 608.547 442.691 607.964C442.483 607.956 442.275 607.949 442.076 607.935C439.089 607.796 436.202 607.388 433.432 606.735C429.181 605.756 425.213 604.224 421.641 602.252C420.393 602.534 419.116 602.809 417.804 603.076C406.4 605.386 392.614 607.034 377.285 607.837C365.055 608.488 351.831 608.605 338.061 608.103C315.17 607.268 293.929 604.845 276.261 601.359C276.564 597.021 282.537 593.131 292.847 589.879C292.847 589.879 292.847 589.879 292.856 589.879C306.862 587.906 323.158 587.077 340.496 587.709C354.862 588.233 368.434 589.71 380.525 591.902C386.248 584.501 397.554 579.704 410.394 580.172C421.97 580.595 432.001 585.201 437.646 591.817C444.076 581.631 457.188 574.918 472.051 575.461C473.947 575.53 475.804 575.713 477.61 576.003C475.073 571.451 473.739 566.368 473.933 561.056C474.534 544.558 489.672 531.389 508.985 529.446C508.981 529.288 508.987 529.131 508.992 528.979C509.448 516.492 522.151 506.832 537.376 507.388C552.6 507.943 564.567 518.503 564.111 530.99C563.931 535.927 561.832 540.424 558.419 544.019C570.58 546.25 580.603 550.093 586.699 554.762C588.937 554.632 591.217 554.6 593.52 554.684C606.206 555.147 617.805 558.92 627.124 564.948C629.881 562.765 633.023 560.911 636.457 559.449C631.067 556.278 627.623 551.045 627.835 545.243C628.17 536.065 637.506 528.966 648.695 529.375C659.883 529.783 668.678 537.543 668.343 546.721C668.206 550.472 666.563 553.883 663.887 556.572C682.202 559.924 701.991 563.833 714.45 584.842C713.935 583.327 713.694 581.767 713.751 580.182C714.241 566.769 735.867 556.666 762.045 557.621C788.223 558.576 809.055 570.228 808.566 583.641C808.379 588.759 805.118 593.39 799.702 597.106C821.05 588.44 830.507 599.865 842.77 600.313C853.497 600.704 863.497 602.474 872.041 605.233Z" fill="#E9F6FC"/>
<path d="M463.149 585.353C463.149 585.353 436.868 603.42 391.877 589.177C391.877 589.177 433.864 611.465 463.149 585.353Z" fill="#E9F6FC"/>
<path d="M544.444 595.319C544.444 595.319 545.795 606.407 581.704 606.234C581.704 606.234 543.64 617.366 544.444 595.319Z" fill="#E9F6FC"/>
<path d="M512.819 562.209C512.819 562.209 522.629 601.113 582.743 577.733C582.743 577.733 534.832 590.813 512.819 562.209Z" fill="#B5D7F7"/>
<path d="M642.654 572.333C642.654 572.333 684.963 589.027 696.326 563.464C696.326 563.464 683.111 578.705 642.654 572.333Z" fill="#B5D7F7"/>
<path d="M392.724 565.98C392.724 565.98 404.968 581.492 434.766 570.227C434.766 570.227 404.038 575.967 392.724 565.98Z" fill="#B5D7F7"/>
<path d="M484.916 546.361C484.916 546.361 525.933 545.781 527.009 516.278C527.009 516.278 536.582 555.288 484.916 546.361Z" fill="#B5D7F7"/>
<path d="M522.724 530.012C522.724 530.012 550.215 541.409 563.255 531.49C563.255 531.49 552.165 544.74 522.496 536.243L522.724 530.012Z" fill="#B5D7F7"/>
<path d="M757.846 562.537C757.846 562.537 762.157 590.091 817.661 586.181C817.661 586.181 816.461 591.486 817.436 592.348C818.412 593.204 797.034 594.864 796.125 595.557C795.216 596.244 753.489 591.087 757.846 562.537Z" fill="#B5D7F7"/>
<path d="M1418.06 325.184C1416.66 315.932 1399.62 308.623 1378.79 308.623C1374.75 308.623 1370.85 308.898 1367.18 309.41C1363.99 307.898 1360.34 307.035 1356.45 307.035C1353.05 307.035 1349.84 307.692 1346.96 308.868C1346.96 308.719 1346.97 308.57 1346.97 308.417C1346.97 298.478 1337.4 290.417 1325.59 290.417C1316.04 290.417 1307.96 295.686 1305.21 302.957C1298.21 299.008 1289.87 296.706 1280.9 296.706C1279.25 296.706 1277.63 296.79 1276.04 296.939C1274.06 287.312 1264.37 280 1252.7 280C1243.08 280 1234.81 284.968 1231.09 292.105C1228.53 291.024 1225.68 290.417 1222.67 290.417C1211.67 290.417 1202.75 298.478 1202.75 308.417C1202.75 309.383 1202.84 310.33 1203 311.254C1202.92 311.25 1202.84 311.247 1202.75 311.247C1197.18 311.247 1192 312.667 1187.64 315.103C1183.83 313.297 1179.47 312.27 1174.82 312.27C1162.16 312.27 1151.57 319.896 1148.79 330.141C1142 330.175 1136.52 333.665 1136.52 337.968C1136.52 338.156 1136.53 338.339 1136.55 338.522C1114.44 341.546 1100 346.537 1100 352.177C1100 361.403 1138.59 368.879 1186.19 368.879C1202.18 368.879 1217.16 368.035 1229.99 366.561C1232.91 371.678 1238.98 375.199 1246.01 375.199C1251.52 375.199 1256.45 373.03 1259.73 369.628C1266.03 372.572 1273.24 374.244 1280.9 374.244C1294.84 374.244 1307.29 368.703 1315.48 360.024C1326.93 360.769 1339.25 361.173 1352.09 361.173C1412.57 361.173 1461.6 352.211 1461.6 341.157C1461.6 334.631 1444.51 328.835 1418.06 325.184Z" fill="#E9F6FC"/>
<path d="M1461.6 341.16C1461.6 352.213 1412.57 361.171 1352.09 361.171C1339.25 361.171 1326.93 360.768 1315.49 360.027C1307.29 368.704 1294.84 374.244 1280.9 374.244C1273.24 374.244 1266.03 372.569 1259.73 369.625C1256.46 373.031 1251.52 375.2 1246.01 375.2C1238.98 375.2 1232.91 371.679 1229.99 366.562C1217.16 368.033 1202.19 368.877 1186.19 368.877C1138.59 368.877 1100 361.4 1100 352.175C1100 352.137 1100 352.102 1100.01 352.064C1110.48 353.833 1123.03 354.862 1136.51 354.862C1155.96 354.862 1173.45 352.724 1185.57 349.318C1189.2 351.271 1193.49 352.398 1198.08 352.398C1207.51 352.398 1215.66 347.643 1219.52 340.746C1219.52 340.84 1219.51 340.927 1219.51 341.014C1219.51 352.485 1230.23 361.783 1243.45 361.783C1251.55 361.783 1258.71 358.286 1263.04 352.947C1268.62 360.191 1278.14 364.97 1288.94 364.97C1301.51 364.97 1312.34 358.495 1317.25 349.179C1319.31 352.912 1323.7 355.495 1328.78 355.495C1335.7 355.495 1341.34 350.712 1341.54 344.75C1354.23 349.46 1372.1 352.398 1391.89 352.398C1422.28 352.398 1448.13 345.477 1457.67 335.828C1460.23 337.527 1461.6 339.311 1461.6 341.16Z" fill="#B5D7F7"/>
<path d="M1457.67 335.826C1448.13 345.48 1422.28 352.395 1391.89 352.395C1372.1 352.395 1354.23 349.462 1341.54 344.75C1341.34 350.711 1335.7 355.492 1328.78 355.492C1323.7 355.492 1319.31 352.914 1317.25 349.18C1312.34 358.493 1301.52 364.969 1288.94 364.969C1278.14 364.969 1268.62 360.192 1263.04 352.945C1258.71 358.287 1251.56 361.785 1243.45 361.785C1230.23 361.785 1219.51 352.483 1219.51 341.016C1219.51 340.928 1219.52 340.84 1219.52 340.749C1215.66 347.641 1207.51 352.395 1198.08 352.395C1193.49 352.395 1189.2 351.268 1185.57 349.317C1173.45 352.723 1155.96 354.862 1136.52 354.862C1123.03 354.862 1110.48 353.831 1100.01 352.063C1100.19 346.469 1114.58 341.527 1136.55 338.522C1136.53 338.339 1136.52 338.152 1136.52 337.969C1136.52 333.661 1142 330.175 1148.79 330.141C1149.64 327.013 1151.22 324.127 1153.36 321.629C1158.23 315.947 1166.03 312.27 1174.82 312.27C1178.61 312.27 1182.21 312.954 1185.48 314.187C1186.21 314.462 1186.94 314.771 1187.64 315.104C1191.68 312.847 1196.43 311.457 1201.54 311.274C1201.94 311.255 1202.35 311.247 1202.76 311.247C1202.84 311.247 1202.92 311.251 1203 311.251C1202.84 310.327 1202.76 309.38 1202.76 308.417C1202.76 298.474 1211.67 290.417 1222.67 290.417C1223.8 290.417 1224.9 290.501 1225.97 290.665C1225.97 290.665 1225.97 290.661 1225.98 290.665C1227.78 290.94 1229.49 291.429 1231.09 292.101C1231.38 291.543 1231.7 290.997 1232.04 290.474C1236.12 284.22 1243.84 280 1252.7 280C1264.37 280 1274.06 287.313 1276.04 296.939C1277.64 296.79 1279.25 296.706 1280.9 296.706C1289.87 296.706 1298.22 299.005 1305.21 302.953C1307.96 295.683 1316.05 290.417 1325.59 290.417C1334.55 290.417 1342.23 295.06 1345.4 301.647C1346.42 303.736 1346.97 306.019 1346.97 308.417C1346.97 308.57 1346.96 308.715 1346.96 308.864C1349.84 307.692 1353.05 307.031 1356.45 307.031C1360.34 307.031 1363.99 307.894 1367.18 309.41C1370.85 308.898 1374.75 308.624 1378.8 308.624C1399.62 308.624 1416.66 315.932 1418.06 325.181C1437.03 327.8 1451.18 331.527 1457.67 335.826Z" fill="#E9F6FC"/>
<path d="M1457.67 335.827C1455.88 337.637 1453.52 339.355 1450.66 340.947C1445.57 339.424 1439.65 338.545 1433.33 338.545C1426.11 338.545 1410.21 338.782 1407.92 337.53C1411.03 335.094 1412.85 332.134 1412.85 328.946C1412.85 320.583 1400.34 313.802 1384.91 313.802C1369.49 313.802 1356.98 320.583 1356.98 328.946C1356.98 329.935 1357.16 330.897 1357.49 331.829C1353.65 332.589 1337.98 317.047 1327.13 315.379C1328.65 313.641 1329.54 311.48 1329.54 309.143C1329.54 303.423 1324.2 298.787 1317.61 298.787C1311.02 298.787 1305.68 303.423 1305.68 309.143C1305.68 312.759 1307.81 315.94 1311.05 317.792C1309.06 318.777 1307.26 320.007 1305.68 321.427C1300.07 317.887 1293.16 315.803 1285.69 315.803C1284.33 315.803 1282.99 315.871 1281.67 316.005C1277.99 313.237 1272.01 311.071 1264.8 309.96C1266.73 307.642 1267.87 304.794 1267.87 301.716C1267.87 293.934 1260.61 287.63 1251.63 287.63C1242.66 287.63 1235.4 293.934 1235.4 301.716C1235.4 301.812 1235.4 301.911 1235.4 302.006C1224.08 303.652 1215.46 312.198 1215.46 322.485C1215.46 325.796 1216.35 328.927 1217.94 331.707C1216.87 331.569 1215.77 331.493 1214.66 331.493C1205.9 331.493 1198.33 335.972 1194.76 342.459C1191.3 338.469 1185.3 335.827 1178.48 335.827C1170.91 335.827 1164.36 339.072 1161.15 343.807C1153.99 342.719 1145.97 342.108 1137.51 342.108C1127.29 342.108 1117.72 342.994 1109.52 344.541C1115.92 342.135 1125.23 340.073 1136.55 338.523C1136.53 338.339 1136.51 338.152 1136.51 337.969C1136.51 333.662 1142 330.175 1148.79 330.141C1149.64 327.014 1151.22 324.127 1153.36 321.63C1158.23 315.948 1166.03 312.27 1174.82 312.27C1178.61 312.27 1182.21 312.954 1185.48 314.187C1186.21 314.462 1186.94 314.772 1187.64 315.104C1191.68 312.847 1196.43 311.457 1201.54 311.274C1201.94 311.255 1202.35 311.247 1202.76 311.247C1202.83 311.247 1202.92 311.251 1203 311.251C1202.84 310.327 1202.76 309.38 1202.76 308.418C1202.76 298.474 1211.67 290.417 1222.67 290.417C1223.8 290.417 1224.9 290.501 1225.97 290.665C1225.97 290.665 1225.97 290.662 1225.98 290.665C1227.78 290.94 1229.49 291.429 1231.09 292.101C1231.38 291.544 1231.7 290.998 1232.04 290.474C1236.12 284.22 1243.84 280 1252.7 280C1264.37 280 1274.06 287.313 1276.04 296.939C1277.64 296.79 1279.25 296.706 1280.9 296.706C1289.87 296.706 1298.22 299.005 1305.21 302.953C1307.96 295.683 1316.04 290.417 1325.59 290.417C1334.55 290.417 1342.23 295.061 1345.4 301.647C1346.42 303.736 1346.97 306.02 1346.97 308.418C1346.97 308.57 1346.96 308.715 1346.96 308.864C1349.84 307.692 1353.05 307.031 1356.45 307.031C1360.34 307.031 1363.99 307.894 1367.18 309.41C1370.85 308.899 1374.75 308.624 1378.8 308.624C1399.62 308.624 1416.66 315.932 1418.06 325.181C1437.03 327.8 1451.18 331.527 1457.67 335.827Z" fill="white"/>
<path d="M1450.66 340.946C1443.12 345.137 1432.13 348.471 1419.12 350.432C1413.09 351.345 1406.61 351.964 1399.84 352.235C1397.24 352.341 1394.58 352.397 1391.89 352.397C1373.36 352.397 1356.53 349.825 1344.04 345.631C1343.19 345.344 1342.35 345.05 1341.54 344.748C1341.45 347.381 1340.31 349.776 1338.46 351.635C1336.66 353.453 1334.2 354.755 1331.39 355.26C1330.98 355.335 1330.55 355.392 1330.13 355.43C1329.69 355.475 1329.23 355.494 1328.78 355.494C1324.85 355.494 1321.33 353.951 1318.99 351.518C1318.3 350.809 1317.71 350.025 1317.25 349.18C1316.18 351.209 1314.83 353.103 1313.25 354.826C1307.54 361.008 1298.77 364.968 1288.94 364.968C1278.14 364.968 1268.62 360.193 1263.04 352.948C1261.05 355.396 1258.47 357.459 1255.47 358.975C1251.94 360.759 1247.84 361.785 1243.45 361.785C1240.12 361.785 1236.95 361.193 1234.07 360.129C1225.51 356.961 1219.51 349.595 1219.51 341.014C1219.51 340.928 1219.52 340.841 1219.52 340.747C1215.66 347.645 1207.51 352.397 1198.08 352.397C1197.96 352.397 1197.83 352.397 1197.72 352.393C1195.96 352.375 1194.25 352.186 1192.6 351.843C1190.08 351.33 1187.71 350.466 1185.57 349.32C1184.84 349.523 1184.1 349.723 1183.33 349.919C1176.67 351.617 1168.59 352.955 1159.59 353.804C1152.41 354.487 1144.63 354.86 1136.51 354.86C1123.03 354.86 1110.48 353.834 1100.01 352.065C1100.09 349.357 1103.52 346.8 1109.52 344.541C1109.52 344.541 1109.52 344.541 1109.52 344.541C1117.72 342.994 1127.29 342.108 1137.51 342.108C1145.97 342.108 1153.99 342.719 1161.15 343.809C1164.36 339.072 1170.91 335.828 1178.48 335.828C1185.3 335.828 1191.3 338.468 1194.76 342.459C1198.33 335.972 1205.9 331.495 1214.66 331.495C1215.77 331.495 1216.87 331.566 1217.94 331.706C1216.35 328.93 1215.45 325.796 1215.45 322.484C1215.45 312.199 1224.08 303.656 1235.4 302.008C1235.4 301.91 1235.4 301.811 1235.4 301.717C1235.4 293.932 1242.66 287.63 1251.63 287.63C1260.6 287.63 1267.87 293.932 1267.87 301.717C1267.87 304.795 1266.73 307.642 1264.8 309.958C1272.01 311.071 1277.99 313.236 1281.67 316.004C1282.99 315.872 1284.33 315.801 1285.69 315.801C1293.16 315.801 1300.07 317.886 1305.68 321.428C1307.26 320.006 1309.06 318.78 1311.05 317.792C1307.81 315.94 1305.68 312.761 1305.68 309.144C1305.68 303.422 1311.02 298.79 1317.61 298.79C1324.2 298.79 1329.54 303.422 1329.54 309.144C1329.54 311.482 1328.65 313.643 1327.13 315.378C1337.98 317.049 1349.71 319.033 1357.49 331.83C1357.16 330.899 1356.98 329.933 1356.98 328.945C1356.98 320.583 1369.49 313.802 1384.91 313.802C1400.34 313.802 1412.85 320.583 1412.85 328.945C1412.85 332.136 1411.03 335.093 1407.92 337.529C1420.29 331.649 1426.1 338.548 1433.33 338.548C1439.65 338.548 1445.57 339.423 1450.66 340.946Z" fill="#E9F6FC"/>
<path d="M1217.58 356.724C1217.58 356.724 1202.51 368.569 1175.73 360.724C1175.73 360.724 1200.91 373.646 1217.58 356.724Z" fill="#E9F6FC"/>
<path d="M1265.63 361.084C1265.63 361.084 1266.67 367.956 1287.79 367.033C1287.79 367.033 1265.63 374.828 1265.63 361.084Z" fill="#E9F6FC"/>
<path d="M1246.31 341.188C1246.31 341.188 1252.92 365.186 1287.79 349.265C1287.79 349.265 1259.88 358.496 1246.31 341.188Z" fill="#B5D7F7"/>
<path d="M1322.93 344.543C1322.93 344.543 1348.18 353.975 1354.32 337.802C1354.32 337.802 1346.87 347.591 1322.93 344.543Z" fill="#B5D7F7"/>
<path d="M1175.73 346.263C1175.73 346.263 1183.27 355.643 1200.56 347.952C1200.56 347.952 1182.6 352.224 1175.73 346.263Z" fill="#B5D7F7"/>
<path d="M1229.55 331.955C1229.55 331.955 1253.68 330.663 1253.68 312.27C1253.68 312.27 1260.15 336.339 1229.55 331.955Z" fill="#B5D7F7"/>
<path d="M1251.45 320.917C1251.45 320.917 1267.87 327.389 1275.33 320.917C1275.33 320.917 1269.09 329.419 1251.45 324.802V320.917Z" fill="#B5D7F7"/>
<path d="M1390.5 335.828C1390.5 335.828 1393.63 352.884 1426.2 349.189C1426.2 349.189 1425.61 352.519 1426.2 353.034C1426.8 353.545 1414.25 355.064 1413.73 355.516C1413.21 355.964 1388.55 353.701 1390.5 335.828Z" fill="#B5D7F7"/>
</svg>
