<svg width="40" height="31" viewBox="0 0 40 31" fill="none" xmlns="http://www.w3.org/2000/svg">
<path d="M33.8451 2.83614C31.3116 1.65515 28.5687 0.797986 25.7115 0.302734C25.6613 0.30345 25.6133 0.32399 25.5782 0.359879C25.2353 0.988468 24.8353 1.80754 24.5686 2.43613C21.538 1.97926 18.4561 1.97926 15.4255 2.43613C15.1588 1.78849 14.7588 0.988468 14.3969 0.359879C14.3779 0.321783 14.3207 0.302734 14.2636 0.302734C11.4063 0.797986 8.68246 1.65515 6.13 2.83614C6.11096 2.83614 6.09191 2.85519 6.07286 2.87423C0.891766 10.6268 -0.536845 18.1699 0.167936 25.6368C0.167936 25.6749 0.186984 25.713 0.225081 25.732C3.65375 28.2464 6.94907 29.7702 10.2063 30.7798C10.2635 30.7988 10.3206 30.7798 10.3396 30.7417C11.1016 29.694 11.7873 28.5892 12.3778 27.4273C12.4159 27.3511 12.3778 27.2749 12.3016 27.2559C11.2159 26.8368 10.1873 26.3415 9.17771 25.7701C9.10151 25.732 9.10151 25.6177 9.15866 25.5606C9.36819 25.4082 9.57772 25.2368 9.78725 25.0844C9.82534 25.0463 9.88249 25.0463 9.92058 25.0653C16.4731 28.0559 23.54 28.0559 30.0164 25.0653C30.0545 25.0463 30.1116 25.0463 30.1497 25.0844C30.3592 25.2558 30.5688 25.4082 30.7783 25.5796C30.8545 25.6368 30.8545 25.7511 30.7592 25.7891C29.7687 26.3796 28.7211 26.8558 27.6354 27.2749C27.5592 27.294 27.5401 27.3892 27.5592 27.4463C28.1687 28.6083 28.8544 29.7131 29.5973 30.7607C29.6545 30.7798 29.7116 30.7988 29.7687 30.7798C33.045 29.7702 36.3404 28.2464 39.769 25.732C39.8071 25.713 39.8262 25.6749 39.8262 25.6368C40.6643 17.008 38.4356 9.52204 33.9212 2.87423C33.9022 2.85519 33.8831 2.83614 33.8451 2.83614ZM13.3683 21.0843C11.4063 21.0843 9.7682 19.2747 9.7682 17.0461C9.7682 14.8174 11.3682 13.0078 13.3683 13.0078C15.3874 13.0078 16.9874 14.8365 16.9684 17.0461C16.9684 19.2747 15.3684 21.0843 13.3683 21.0843ZM26.6449 21.0843C24.6829 21.0843 23.0448 19.2747 23.0448 17.0461C23.0448 14.8174 24.6448 13.0078 26.6449 13.0078C28.664 13.0078 30.264 14.8365 30.2449 17.0461C30.2449 19.2747 28.664 21.0843 26.6449 21.0843Z" fill="black"/>
</svg>
