<svg width="38" height="42" viewBox="0 0 38 42" fill="none" xmlns="http://www.w3.org/2000/svg">
<path fill-rule="evenodd" clip-rule="evenodd" d="M27.4444 0C30.244 0 32.9288 1.1121 34.9084 3.09165C36.8879 5.0712 38 7.75605 38 10.5556V27.4444C38 30.244 36.8879 32.9288 34.9084 34.9084C32.9288 36.8879 30.244 38 27.4444 38H10.5556C7.75605 38 5.0712 36.8879 3.09165 34.9084C1.1121 32.9288 0 30.244 0 27.4444V10.5556C0 7.75605 1.1121 5.0712 3.09165 3.09165C5.0712 1.1121 7.75605 0 10.5556 0H27.4444ZM27.4444 4.22222H10.5556C8.87585 4.22222 7.26494 4.88948 6.07721 6.07721C4.88948 7.26494 4.22222 8.87585 4.22222 10.5556V27.4444C4.22222 29.1241 4.88948 30.7351 6.07721 31.9228C7.26494 33.1105 8.87585 33.7778 10.5556 33.7778H27.4444C29.1241 33.7778 30.7351 33.1105 31.9228 31.9228C33.1105 30.7351 33.7778 29.1241 33.7778 27.4444V10.5556C33.7778 8.87585 33.1105 7.26494 31.9228 6.07721C30.7351 4.88948 29.1241 4.22222 27.4444 4.22222ZM19 10.5556C21.2396 10.5556 23.3875 11.4452 24.9711 13.0289C26.5548 14.6125 27.4444 16.7604 27.4444 19C27.4444 21.2396 26.5548 23.3875 24.9711 24.9711C23.3875 26.5548 21.2396 27.4444 19 27.4444C16.7604 27.4444 14.6125 26.5548 13.0289 24.9711C11.4452 23.3875 10.5556 21.2396 10.5556 19C10.5556 16.7604 11.4452 14.6125 13.0289 13.0289C14.6125 11.4452 16.7604 10.5556 19 10.5556ZM19 14.7778C17.8802 14.7778 16.8063 15.2226 16.0144 16.0144C15.2226 16.8063 14.7778 17.8802 14.7778 19C14.7778 20.1198 15.2226 21.1937 16.0144 21.9856C16.8063 22.7774 17.8802 23.2222 19 23.2222C20.1198 23.2222 21.1937 22.7774 21.9856 21.9856C22.7774 21.1937 23.2222 20.1198 23.2222 19C23.2222 17.8802 22.7774 16.8063 21.9856 16.0144C21.1937 15.2226 20.1198 14.7778 19 14.7778ZM28.5 7.38889C29.0599 7.38889 29.5969 7.61131 29.9928 8.00722C30.3887 8.40313 30.6111 8.9401 30.6111 9.5C30.6111 10.0599 30.3887 10.5969 29.9928 10.9928C29.5969 11.3887 29.0599 11.6111 28.5 11.6111C27.9401 11.6111 27.4031 11.3887 27.0072 10.9928C26.6113 10.5969 26.3889 10.0599 26.3889 9.5C26.3889 8.9401 26.6113 8.40313 27.0072 8.00722C27.4031 7.61131 27.9401 7.38889 28.5 7.38889Z" fill="black"/>
</svg>
