<svg width="40" height="41" viewBox="0 0 40 41" fill="none" xmlns="http://www.w3.org/2000/svg">
<path d="M20 26.3789C18.4529 26.3789 16.9691 25.7643 15.8752 24.6704C14.7812 23.5764 14.1666 22.0927 14.1666 20.5456C14.1666 18.9985 14.7812 17.5147 15.8752 16.4208C16.9691 15.3268 18.4529 14.7122 20 14.7122C21.5471 14.7122 23.0308 15.3268 24.1248 16.4208C25.2187 17.5147 25.8333 18.9985 25.8333 20.5456C25.8333 22.0927 25.2187 23.5764 24.1248 24.6704C23.0308 25.7643 21.5471 26.3789 20 26.3789ZM32.3833 22.1622C32.45 21.6289 32.5 21.0956 32.5 20.5456C32.5 19.9956 32.45 19.4456 32.3833 18.8789L35.9 16.1622C36.2166 15.9122 36.3 15.4622 36.1 15.0956L32.7666 9.32891C32.5666 8.96224 32.1166 8.81224 31.75 8.96224L27.6 10.6289C26.7333 9.97891 25.8333 9.41224 24.7833 8.99558L24.1666 4.57891C24.1328 4.3826 24.0305 4.20462 23.878 4.0765C23.7255 3.94837 23.5325 3.87837 23.3333 3.87891H16.6666C16.25 3.87891 15.9 4.17891 15.8333 4.57891L15.2166 8.99558C14.1666 9.41224 13.2666 9.97891 12.4 10.6289L8.24998 8.96224C7.88331 8.81224 7.43331 8.96224 7.23331 9.32891L3.89998 15.0956C3.68331 15.4622 3.78331 15.9122 4.09998 16.1622L7.61664 18.8789C7.54998 19.4456 7.49998 19.9956 7.49998 20.5456C7.49998 21.0956 7.54998 21.6289 7.61664 22.1622L4.09998 24.9289C3.78331 25.1789 3.68331 25.6289 3.89998 25.9956L7.23331 31.7622C7.43331 32.1289 7.88331 32.2622 8.24998 32.1289L12.4 30.4456C13.2666 31.1122 14.1666 31.6789 15.2166 32.0956L15.8333 36.5122C15.9 36.9122 16.25 37.2122 16.6666 37.2122H23.3333C23.75 37.2122 24.1 36.9122 24.1666 36.5122L24.7833 32.0956C25.8333 31.6622 26.7333 31.1122 27.6 30.4456L31.75 32.1289C32.1166 32.2622 32.5666 32.1289 32.7666 31.7622L36.1 25.9956C36.3 25.6289 36.2166 25.1789 35.9 24.9289L32.3833 22.1622Z" fill="black"/>
</svg>
